<svg xmlns="http://www.w3.org/2000/svg" xmlns:xlink="http://www.w3.org/1999/xlink" width="0" height="0" style="display:none;"><symbol viewBox="0 0 24 24" id="curd-alignCenter"> <title id="alignCenterIconTitle">Align Center</title> <path d="M8 10L16 10M6 6L18 6M6 14L18 14M8 18L16 18"></path> </symbol><symbol viewBox="0 0 24 24" id="curd-alignLeft"> <title id="alignLeftIconTitle">Align Left</title> <path d="M6 10L14 10M6 6L18 6M6 14L18 14M6 18L14 18"></path> </symbol><symbol viewBox="0 0 24 24" id="curd-alignRight"> <title id="alignRightIconTitle">Align Right</title> <path d="M10 10h8M6 6h12M6 14h12m-8 4h8"></path> </symbol><symbol viewBox="0 0 24 24" id="curd-anchor"> <title id="anchorIconTitle">Anchor</title> <path d="M12 20L12 7M9 10L15 10"></path> <circle cx="12" cy="5" r="2"></circle> <path d="M20,14 C18.6666667,18 16,20 12,20 C8,20 5.33333333,18 4,14"></path> </symbol><symbol viewBox="0 0 24 24" id="curd-aperture"> <title id="apertureIconTitle">Aperture</title> <path d="M12 22C17.5228 22 22 17.5228 22 12C22 6.47715 17.5228 2 12 2C6.47715 2 2 6.47715 2 12C2 17.5228 6.47715 22 12 22Z"></path> <g stroke-linecap="round"> <path d="M3 16H14.3164"></path> <path d="M4.03589 6.20575L9.68257 15.9861"></path> <path d="M13.0359 2.20575L7.37891 12.004"></path> <path d="M10.9641 21.7942L16.6146 12.0074"></path> <path d="M19.9641 17.7942L14.3086 7.99866"></path> <path d="M21 7.98721H9.71844"></path> </g> </symbol><symbol viewBox="0 0 24 24" id="curd-apps"> <title id="appsIconTitle">Apps drawer</title> <circle cx="6" cy="6" r="1"></circle> <circle cx="12" cy="6" r="1"></circle> <circle cx="18" cy="6" r="1"></circle> <circle cx="6" cy="12" r="1"></circle> <circle cx="12" cy="12" r="1"></circle> <circle cx="18" cy="12" r="1"></circle> <circle cx="6" cy="18" r="1"></circle> <circle cx="12" cy="18" r="1"></circle> <circle cx="18" cy="18" r="1"></circle> </symbol><symbol viewBox="0 0 24 24" id="curd-arrow-down"> <title id="arrowDownIconTitle">Arrow Down</title> <path d="M6 15l6 6 6-6"></path> <path d="M12 3v17"></path> <path stroke-linecap="round" d="M12 21v-1"></path> </symbol><symbol viewBox="0 0 24 24" id="curd-arrow-left-bottom"> <title id="arrowLeftBottomIconTitle">Arrow Left Bottom</title> <path d="M5 11v8h8"></path> <path stroke-linecap="round" d="M5 19l1-1"></path> <path d="M6 18L19 5"></path> </symbol><symbol viewBox="0 0 24 24" id="curd-arrow-left-top"> <title id="arrowLeftTopIconTitle"></title> <path d="M5 13V5h8"></path> <path stroke-linecap="round" d="M5 5l1 1"></path> <path d="M6 6l13 13"></path> </symbol><symbol viewBox="0 0 24 24" id="curd-arrow-left"> <title id="arrowLeftIconTitle">Arrow Left</title> <path d="M9 6l-6 6 6 6"></path> <path d="M21 12H4"></path> <path stroke-linecap="round" d="M3 12h1"></path> </symbol><symbol viewBox="0 0 24 24" id="curd-arrow-right-bottom"> <title id="arrowRightBottomIconTitle">Arrow Right Bottom</title> <path d="M19 11v8h-8"></path> <path stroke-linecap="round" d="M19 19l-1-1"></path> <path d="M18 18L5 5"></path> </symbol><symbol viewBox="0 0 24 24" id="curd-arrow-right-top"> <title id="arrowRightTopIconTitle">Arrow Right Top</title> <path d="M19 13V5h-8"></path> <path stroke-linecap="round" d="M19 5l-1 1"></path> <path d="M18 6L5 19"></path> </symbol><symbol viewBox="0 0 24 24" id="curd-arrow-right"> <title id="arrowRightIconTitle">Arrow Right</title> <path d="M15 18l6-6-6-6"></path> <path d="M3 12h17"></path> <path stroke-linecap="round" d="M21 12h-1"></path> </symbol><symbol viewBox="0 0 24 24" id="curd-arrow-up"> <title id="arrowUpIconTitle">Arrow Up</title> <path d="M18 9l-6-6-6 6"></path> <path d="M12 21V4"></path> <path stroke-linecap="round" d="M12 3v1"></path> </symbol><symbol viewBox="0 0 24 24" id="curd-bell"> <title id="bellIconTitle">Bell</title> <path stroke-linejoin="round" d="M10.5,4.5 C12.1666667,4.5 13.8333333,4.5 15.5,4.5 C17.5,4.5 18.8333333,3.83333333 19.5,2.5 L19.5,18.5 C18.8333333,17.1666667 17.5,16.5 15.5,16.5 C13.8333333,16.5 12.1666667,16.5 10.5,16.5 L10.5,16.5 C7.1862915,16.5 4.5,13.8137085 4.5,10.5 L4.5,10.5 C4.5,7.1862915 7.1862915,4.5 10.5,4.5 Z" transform="rotate(90 12 10.5)"></path> <path d="M11,21 C12.1045695,21 13,20.1045695 13,19 C13,17.8954305 12.1045695,17 11,17" transform="rotate(90 12 19)"></path> </symbol><symbol viewBox="0 0 24 24" id="curd-bin"> <title id="binIconTitle">Bin</title> <path d="M19 6L5 6M14 5L10 5M6 10L6 20C6 20.6666667 6.33333333 21 7 21 7.66666667 21 11 21 17 21 17.6666667 21 18 20.6666667 18 20 18 19.3333333 18 16 18 10"></path> </symbol><symbol viewBox="0 0 24 24" id="curd-bolt"> <title id="boltIconTitle">Bolt</title> <path d="M5 14l8-11v7h5l-8 11v-7z"></path> </symbol><symbol viewBox="0 0 24 24" id="curd-camera-rear"> <title id="cameraRearIconTitle">Switch the Cameras</title> <path d="M6 12l2-2 2 2"></path> <path d="M8 13a4 4 0 0 0 4 4m4-4a4 4 0 0 0-4-4"></path> <path stroke-linecap="butt" d="M8 12v1m0-3v3m8 0v3"></path> <path d="M18 14l-2 2-2-2"></path> <path d="M8 7l.74-1.11A2 2 0 0 1 10.404 5h3.192a2 2 0 0 1 1.664.89L16 7h5v13H3V7h5z"></path> </symbol><symbol viewBox="0 0 24 24" id="curd-camera"> <title id="cameraIconTitle">Camera</title> <path d="M8 7l.74-1.11A2 2 0 0 1 10.404 5h3.192a2 2 0 0 1 1.664.89L16 7h5v11H3V7h5z"></path> <circle cx="12" cy="12" r="3"></circle> </symbol><symbol viewBox="0 0 24 24" id="curd-celluar"> <title id="celluarIconTitle">Celluar</title> <path d="M18 7L18 18M14 10L14 18M10 13L10 18M6 16L6 18"></path> </symbol><symbol viewBox="0 0 24 24" id="curd-chart"> <title id="chartIconTitle">Chart</title> <polygon points="2 12 2 21 6 21 6 12"></polygon> <polygon points="18 7 18 21 22 21 22 7"></polygon> <polygon points="10 3 10 21 14 21 14 3"></polygon> </symbol><symbol viewBox="0 0 24 24" id="curd-chat"> <title id="chatIconTitle">Chat</title> <path d="M8.82388455,18.5880577 L4,21 L4.65322944,16.4273939 C3.00629211,15.0013 2,13.0946628 2,11 C2,6.581722 6.4771525,3 12,3 C17.5228475,3 22,6.581722 22,11 C22,15.418278 17.5228475,19 12,19 C10.8897425,19 9.82174472,18.8552518 8.82388455,18.5880577 Z"></path> </symbol><symbol viewBox="0 0 24 24" id="curd-circle"> <title id="circleIconTitle">Circle</title> <circle cx="12" cy="12" r="8"></circle> </symbol><symbol viewBox="0 0 24 24" id="curd-clip"> <title id="clipIconTitle">Attachment (paper clip)</title> <path d="M7.93517 13.7796L15.1617 6.55304C16.0392 5.67631 17.4657 5.67631 18.3432 6.55304C19.2206 7.43052 19.2206 8.85774 18.3432 9.73522L8.40091 19.5477C6.9362 21.0124 4.56325 21.0124 3.09854 19.5477C1.63382 18.0837 1.63382 15.7093 3.09854 14.2453L12.9335 4.53784C14.984 2.48739 18.3094 2.48739 20.3569 4.53784C22.4088 6.58904 22.4088 9.91146 20.3584 11.9619L13.239 19.082"></path> </symbol><symbol viewBox="0 0 24 24" id="curd-close"> <title id="closeIconTitle">Close</title> <path d="M6.34314575 6.34314575L17.6568542 17.6568542M6.34314575 17.6568542L17.6568542 6.34314575"></path> </symbol><symbol viewBox="0 0 24 24" id="curd-cloud-crossed"> <title id="cloudCrossedIconTitle">Cloud/internet services unavailable</title> <path d="M13 6C15.9818 6 18.4555 8.17504 18.9212 11.0251C20.6556 11.2331 22 12.7096 22 14.5C22 16.433 20.433 18 18.5 18H6.5C4.01472 18 2 15.9853 2 13.5C2 11.0147 4.01472 9 6.5 9C6.91949 9 7.32556 9.0574 7.71081 9.16477C8.72277 7.28089 10.7118 6 13 6Z"></path> <path d="M3 21L20 4"></path> </symbol><symbol viewBox="0 0 24 24" id="curd-cloud"> <title id="cloudIconTitle">Cloud</title> <path d="M6.5,18 C4.01471863,18 2,15.9852814 2,13.5 C2,11.0147186 4.01471863,9 6.5,9 C6.9194849,9 7.3255638,9.05739789 7.71081142,9.16476838 C8.72277,7.28089089 10.711801,6 13,6 C15.9817502,6 18.4554927,8.17503894 18.9211951,11.0250841 C20.6555928,11.2331085 22,12.7095527 22,14.5 C22,16.4329966 20.4329966,18 18.5,18 L6.5,18 Z"></path> </symbol><symbol viewBox="0 0 24 24" id="curd-code-alt"> <title id="codeAltIconTitle">Code</title> <path d="M7 8L3 12L7 16"></path> <path d="M17 16L21 12L17 8"></path> <path d="M9 19.5L14.5 5"></path> </symbol><symbol viewBox="0 0 24 24" id="curd-code"> <title id="codeIconTitle">Code</title> <path d="M7 8L3 12L7 16"></path> <path d="M17 16L21 12L17 8"></path> </symbol><symbol viewBox="0 0 24 24" id="curd-coffee"> <title id="coffeeIconTitle">Coffee</title> <path d="M5 12H17V17C17 19.7614 14.7614 22 12 22H10C7.23858 22 5 19.7614 5 17V12Z"></path> <path d="M17 13H19C20.1046 13 21 13.8954 21 15V15C21 16.1046 20.1046 17 19 17H17"></path> <path d="M9 9C9 9 8 8.5 8 7C8 5.5 9 5 9 5"></path> <path d="M12 3C12 3 13 3.5 13 5C13 6.5 12 7 12 7"></path> </symbol><symbol viewBox="0 0 24 24" id="curd-colours"> <title id="coloursIconTitle">Colours</title> <circle cx="12" cy="9" r="5"></circle> <circle cx="9" cy="14" r="5"></circle> <circle cx="15" cy="14" r="5"></circle> </symbol><symbol viewBox="0 0 34 34" id="curd-component"> <title id="componentIconTitle">Component</title> <rect x="17" y="8.51471" width="4" height="4" transform="rotate(45 17 8.51471)"></rect> <path fill-rule="evenodd" clip-rule="evenodd" d="M21.9498 13.4645L24.7782 16.2929L21.9498 19.1213L19.1213 16.2929L21.9498 13.4645Z"></path> <rect x="12.0502" y="13.4645" width="4" height="4" transform="rotate(45 12.0502 13.4645)"></rect> <rect x="17" y="18.4142" width="4" height="4" transform="rotate(45 17 18.4142)"></rect> </symbol><symbol viewBox="0 0 24 24" id="curd-control-centre"> <title id="controlCentreIconTitle">Control Centre</title> <path d="M4 6.5C4 4.567 5.567 3 7.5 3L16.5 3C18.433 3 20 4.567 20 6.5V6.5C20 8.433 18.433 10 16.5 10L7.5 10C5.567 10 4 8.433 4 6.5V6.5Z"></path> <path d="M20 17.5C20 19.433 18.433 21 16.5 21L7.5 21C5.567 21 4 19.433 4 17.5V17.5C4 15.567 5.567 14 7.5 14L16.5 14C18.433 14 20 15.567 20 17.5V17.5Z"></path> <circle cx="16.5" cy="17.5" r="1"></circle> <circle cx="7.5" cy="6.5" r="1"></circle> </symbol><symbol viewBox="0 0 24 24" id="curd-controls-alt"> <title id="controlsAltIconTitle">Controls</title> <circle cx="9" cy="6" r="2"></circle> <path d="M4 6H7"></path> <path d="M11 6H20"></path> <circle cx="9" cy="18" r="2"></circle> <path d="M4 18H7"></path> <path d="M11 18H20"></path> <circle cx="15" cy="12" r="2"></circle> <path d="M4 12H13"></path> <path d="M17 12L20 12"></path> </symbol><symbol viewBox="0 0 24 24" id="curd-controls-vertical-alt"> <title id="controlsVerticalAltIconTitle">Controls</title> <circle cx="18" cy="9" r="2" transform="rotate(90 18 9)"></circle> <path d="M18 4L18 7"></path> <path d="M18 11L18 20"></path> <circle cx="6" cy="9" r="2" transform="rotate(90 6 9)"></circle> <path d="M6 4L6 7"></path> <path d="M6 11L6 20"></path> <circle cx="12" cy="15" r="2" transform="rotate(90 12 15)"></circle> <path d="M12 4L12 13"></path> <path d="M12 17L12 20"></path> </symbol><symbol viewBox="0 0 24 24" id="curd-controls"> <title id="controlsIconTitle">Controllers</title> <path d="M17 18L17 6M12 18L12 6M7 18L7 6M5 8L9 8M10 16L14 16M15 12L19 12"></path> </symbol><symbol viewBox="0 0 24 24" id="curd-crossing"> <title id="crossingIconTitle">Crossing</title> <path d="M5.7149 20.3875L14.4522 9.49689C15.2114 8.5506 16.359 8 17.5722 8L21 8V8"></path> <path d="M18 4L22 8L18 12"></path> <path d="M3.00003 8.00001L6.42778 8.00001C7.64097 8.00001 8.78859 8.55061 9.54778 9.4969L18.2851 20.3875"></path> <path d="M6 12L2 8L6 4"></path> </symbol><symbol viewBox="0 0 24 24" id="curd-cursor"> <title id="cursorIconTitle">Cursor</title> <polygon points="7 20 7 4 19 16 12 16 7 21"></polygon> </symbol><symbol viewBox="0 0 24 24" id="curd-cut"> <title id="cutIconTitle">Cut</title> <path d="M3 18L15 9M15 15L3 6"></path> <circle cx="18" cy="7" r="3"></circle> <circle cx="18" cy="17" r="3"></circle> </symbol><symbol viewBox="0 0 24 24" id="curd-delete"> <title id="deleteIconTitle">Delete (Backspace)</title> <polygon points="20 18 9 18 3 12 9 6 20 6"></polygon> <path d="M12.1143819 10.1143819L15.8856181 13.8856181M12.1143819 13.8856181L15.8856181 10.1143819"></path> </symbol><symbol viewBox="0 0 24 24" id="curd-direction-left"> <title id="directionLeftIconTitle">Turn Left</title> <path d="M6 7H13.1667C13.1667 7 19 7 19 12.8333C19 18.6667 19 21 19 21"></path> <path d="M9 11L5 7L9 3"></path> </symbol><symbol viewBox="0 0 24 24" id="curd-direction-right"> <title id="directionRightIconTitle"></title> <path d="M18 7H10.8333C10.8333 7 5 7 5 12.8333C5 18.6667 5 21 5 21"></path> <path d="M15 11L19 7L15 3"></path> </symbol><symbol viewBox="0 0 24 24" id="curd-drop"> <title id="dropIconTitle">Drop</title> <path d="M12,21 C15.3137085,21 18,18.3904147 18,15 C18,11.6666667 16,8 12,4 C8,8 6,11.6666667 6,15 C6,18.3904147 8.6862915,21 12,21 Z"></path> </symbol><symbol viewBox="0 0 24 24" id="curd-edit"> <title id="editIconTitle">Edit</title> <path d="M18.4142136 4.41421356L19.5857864 5.58578644C20.366835 6.36683502 20.366835 7.63316498 19.5857864 8.41421356L8 20 4 20 4 16 15.5857864 4.41421356C16.366835 3.63316498 17.633165 3.63316498 18.4142136 4.41421356zM14 6L18 10"></path> </symbol><symbol viewBox="0 0 24 24" id="curd-ellypsis-vertical"> <title id="ellypsisVerticalIconTitle">Ellypsis</title> <path d="M11 12C11 11.4477153 11.4477153 11 12 11 12.5522847 11 13 11.4477153 13 12 13 12.5522847 12.5522847 13 12 13 11.4477153 13 11 12.5522847 11 12zM11 6C11 5.44771525 11.4477153 5 12 5 12.5522847 5 13 5.44771525 13 6 13 6.55228475 12.5522847 7 12 7 11.4477153 7 11 6.55228475 11 6zM11 18C11 17.4477153 11.4477153 17 12 17 12.5522847 17 13 17.4477153 13 18 13 18.5522847 12.5522847 19 12 19 11.4477153 19 11 18.5522847 11 18z"></path> </symbol><symbol viewBox="0 0 24 24" id="curd-ellypsis"> <title id="ellypsisIconTitle">Ellypsis</title> <circle cx="12" cy="12" r="1"></circle> <circle cx="6" cy="12" r="1"></circle> <circle cx="18" cy="12" r="1"></circle> </symbol><symbol viewBox="0 0 24 24" id="curd-envelope"> <title id="envelopeIconTitle">Envelope</title> <rect width="20" height="14" x="2" y="5"></rect> <path stroke-linecap="round" d="M2 5l10 9 10-9"></path> <path stroke-linecap="round" d="M2 19l6.825-7.8"></path> <path stroke-linecap="round" d="M22 19l-6.844-7.822"></path> </symbol><symbol viewBox="0 0 24 24" id="curd-explore"> <title id="exploreIconTitle">Explore</title> <polygon points="14.121 14.121 7.05 16.95 9.879 9.879 16.95 7.05"></polygon> <circle cx="12" cy="12" r="10"></circle> </symbol><symbol viewBox="0 0 24 24" id="curd-extension"> <title id="extensionIconTitle">Extension</title> <path d="M9 4C9 2.89543 9.89543 2 11 2C12.1046 2 13 2.89543 13 4V6H18V11H20C21.1046 11 22 11.8954 22 13C22 14.1046 21.1046 15 20 15H18V20H13V18C13 16.8954 12.1046 16 11 16C9.89543 16 9 16.8954 9 18V20H4V15H6C7.10457 15 8 14.1046 8 13C8 11.8954 7.10457 11 6 11H4V6H9V4Z"></path> </symbol><symbol viewBox="0 0 24 24" id="curd-eye-closed"> <title id="eyeClosedIconTitle">Hidden (closed eye)</title> <path d="M20 9C20 9 19.6797 9.66735 19 10.5144M12 14C10.392 14 9.04786 13.5878 7.94861 13M12 14C13.608 14 14.9521 13.5878 16.0514 13M12 14V17.5M4 9C4 9 4.35367 9.73682 5.10628 10.6448M7.94861 13L5 16M7.94861 13C6.6892 12.3266 5.75124 11.4228 5.10628 10.6448M16.0514 13L18.5 16M16.0514 13C17.3818 12.2887 18.3535 11.3202 19 10.5144M5.10628 10.6448L2 12M19 10.5144L22 12"></path> </symbol><symbol viewBox="0 0 24 24" id="curd-eye-crossed"> <title id="eyeCrossedIconTitle">Hidden (crossed eye)</title> <path d="M22 12C22 12 19 18 12 18C5 18 2 12 2 12C2 12 5 6 12 6C19 6 22 12 22 12Z"></path> <circle cx="12" cy="12" r="3"></circle> <path d="M3 21L20 4"></path> </symbol><symbol viewBox="0 0 24 24" id="curd-eye"> <title id="eyeIconTitle">Visible (eye)</title> <path d="M22 12C22 12 19 18 12 18C5 18 2 12 2 12C2 12 5 6 12 6C19 6 22 12 22 12Z"></path> <circle cx="12" cy="12" r="3"></circle> </symbol><symbol viewBox="0 0 24 24" id="curd-favourite"> <title id="favouriteIconTitle">Favourite</title> <path d="M12,21 L10.55,19.7051771 C5.4,15.1242507 2,12.1029973 2,8.39509537 C2,5.37384196 4.42,3 7.5,3 C9.24,3 10.91,3.79455041 12,5.05013624 C13.09,3.79455041 14.76,3 16.5,3 C19.58,3 22,5.37384196 22,8.39509537 C22,12.1029973 18.6,15.1242507 13.45,19.7149864 L12,21 Z"></path> </symbol><symbol viewBox="0 0 24 24" id="curd-file"> <title id="fileIconTitle">File</title> <path stroke-linecap="round" d="M13 3v6h6"></path> <path d="M13 3l6 6v12H5V3z"></path> </symbol><symbol viewBox="0 0 24 24" id="curd-film"> <title id="filmIconTitle">Film</title> <path stroke-linecap="round" d="M16 10.087l5-1.578v7.997l-4.998-1.578"></path> <path d="M16 7H3v11h13z"></path> </symbol><symbol viewBox="0 0 24 24" id="curd-filter"> <title id="filterIconTitle">Filter</title> <path d="M10 12.261L4.028 3.972h16L14 12.329V17l-4 3z"></path> </symbol><symbol viewBox="0 0 24 24" id="curd-folder"> <title id="folderIconTitle">Folder</title> <path d="M3 5h6l1 2h11v12H3z"></path> </symbol><symbol viewBox="0 0 24 24" id="curd-grid-alt"> <title id="gridIconTitle">Grid</title> <path d="M7 3V21"></path> <path d="M17 3V21"></path> <path d="M21 17L3 17"></path> <path d="M21 7L3 7"></path> </symbol><symbol viewBox="0 0 24 24" id="curd-grid-small"> <title id="gridSmallIconTitle">Small Grid</title> <rect width="4" height="4" x="6" y="6"></rect> <rect width="4" height="4" x="13" y="6"></rect> <rect width="4" height="4" x="6" y="13"></rect> <rect width="4" height="4" x="13" y="13"></rect> </symbol><symbol viewBox="0 0 24 24" id="curd-grid"> <title id="gridLargeIconTitle">Large Grid</title> <rect width="7" height="7" x="3" y="3"></rect> <rect width="7" height="7" x="14" y="3"></rect> <rect width="7" height="7" x="3" y="14"></rect> <rect width="7" height="7" x="14" y="14"></rect> </symbol><symbol viewBox="0 0 24 24" id="curd-hamburger"> <title id="hamburgerIconTitle">Menu</title> <path d="M6 7L18 7M6 12L18 12M6 17L18 17"></path> </symbol><symbol viewBox="0 0 24 24" id="curd-hash"> <title id="hashIconTitle">Hash</title> <path d="M11 3L5 21M19 3L13 21M3 16L19 16M5 8L21 8"></path> </symbol><symbol viewBox="0 0 24 24" id="curd-headphones"> <title id="headphonesIconTitle">Headphones</title> <path stroke-linecap="round" d="M21,13 L19,13 C17.8954305,13 17,13.8954305 17,15 L17,17 C17,18.1045695 17.8954305,19 19,19 L19,19 C20.1045695,19 21,18.1045695 21,17 L21,13 C21,8.02943725 16.9705627,4 12,4 C7.02943725,4 3,8.02943725 3,13 L3,17 C3,18.1045695 3.8954305,19 5,19 L5,19 C6.1045695,19 7,18.1045695 7,17 L7,15 C7,13.8954305 6.1045695,13 5,13 L3,13"></path> </symbol><symbol viewBox="0 0 24 24" id="curd-home-alt2"> <title id="homeAlt2IconTitle">Home</title> <path d="M2 12L5 9.3M22 12L19 9.3M19 9.3L12 3L5 9.3M19 9.3V21H5V9.3"></path> </symbol><symbol viewBox="0 0 24 24" id="curd-horn"> <title id="hornIconTitle">Bullhorn</title> <path stroke-linejoin="round" d="M6.5,9 C8.33333333,9 10.1666667,9 12,9 C14,9 16.3333333,7.33333333 19,4 L19,19 C16.3333333,15.6666667 14,14 12,14 C10.1666667,14 8.33333333,14 6.5,14 L6.5,14 C5.11928813,14 4,12.8807119 4,11.5 L4,11.5 C4,10.1192881 5.11928813,9 6.5,9 Z"></path> <polygon points="7 14 9 20 13 20 11 14"></polygon> <path d="M11,9 L11,14"></path> </symbol><symbol viewBox="0 0 24 24" id="curd-hourglass"> <title id="hourglassIconTitle">Hourglass</title> <path d="M16.7647059,7.82108056 L16.7647059,5 C16.7647059,3.8954305 15.8692754,3 14.7647059,3 L9.23529412,3 C8.13072462,3 7.23529412,3.8954305 7.23529412,5 L7.23529412,7.82108056 L11.4142136,12 L7.23529412,16.1789194 L7.23529412,19 C7.23529412,20.1045695 8.13072462,21 9.23529412,21 L14.7647059,21 C15.8692754,21 16.7647059,20.1045695 16.7647059,19 L16.7647059,16.1789194 L12.5857864,12 L16.7647059,7.82108056 Z"></path> </symbol><symbol viewBox="0 0 24 24" id="curd-image"> <title id="imageIconTitle">Image</title> <rect width="18" height="18" x="3" y="3"></rect> <path stroke-linecap="round" d="M3 14l4-4 11 11"></path> <circle cx="13.5" cy="7.5" r="2.5"></circle> <path stroke-linecap="round" d="M13.5 16.5L21 9"></path> </symbol><symbol viewBox="0 0 24 24" id="curd-inbox-alt"> <title id="inboxAltIconTitle">Inbox</title> <path d="M3 13H9V16H15V13H21"></path> <path fill-rule="evenodd" clip-rule="evenodd" d="M3 13L5 4H19L21 13V20H3V13Z"></path> <path d="M7 7H17"></path> <path d="M6.5 10H17.5"></path> </symbol><symbol viewBox="0 0 24 24" id="curd-inbox"> <title id="inboxIconTitle">Inbox</title> <path d="M3 10H9V13H15V10H21"></path> <path d="M3 10L6 4H18L21 10V20H3V10Z"></path> </symbol><symbol viewBox="0 0 24 24" id="curd-iphone"> <title id="iphoneIconTitle">iPhone</title> <path d="M18,3 L18,21 C18,21.5522847 17.5522847,22 17,22 L7,22 C6.44771525,22 6,21.5522847 6,21 L6,3 C6,2.44771525 6.44771525,2 7,2 L17,2 C17.5522847,2 18,2.44771525 18,3 Z"></path> <polygon points="14 2 14 3 10 3 10 2"></polygon> </symbol><symbol viewBox="0 0 24 24" id="curd-justify"> <title id="justifyIconTitle">Justify</title> <path d="M6 10L18 10M6 6L18 6M6 14L18 14M6 18L18 18"></path> </symbol><symbol viewBox="0 0 24 24" id="curd-language"> <title id="languageIconTitle">Language</title> <circle cx="12" cy="12" r="10"></circle> <path stroke-linecap="round" d="M12,22 C14.6666667,19.5757576 16,16.2424242 16,12 C16,7.75757576 14.6666667,4.42424242 12,2 C9.33333333,4.42424242 8,7.75757576 8,12 C8,16.2424242 9.33333333,19.5757576 12,22 Z"></path> <path stroke-linecap="round" d="M2.5 9L21.5 9M2.5 15L21.5 15"></path> </symbol><symbol viewBox="0 0 24 24" id="curd-laptop"> <title id="laptopIconTitle">Laptop</title> <path d="M20 7v11H4V7a1 1 0 0 1 1-1h14a1 1 0 0 1 1 1z"></path> <path d="M2 18h20M4 17h16"></path> </symbol><symbol viewBox="0 0 24 24" id="curd-layers"> <title id="layersIconTitle">Layers</title> <path d="M12 4L20 8.00004L12 12L4 8.00004L12 4Z"></path> <path d="M20 12L12 16L4 12"></path> <path d="M20 16L12 20L4 16"></path> </symbol><symbol viewBox="0 0 24 24" id="curd-line-chart"> <title id="lineChartIconTitle">Line Chart</title> <path d="M3,16 L8,11"></path> <circle cx="9" cy="10" r="1"></circle> <circle cx="14" cy="15" r="1"></circle> <path d="M10 11L13 14M15 14L21 8"></path> </symbol><symbol viewBox="0 0 24 24" id="curd-link"> <title id="linkIconTitle">Link</title> <path d="M10.5,15.5 C10.5,14.1666667 10.5,13.5 10.5,13.5 C10.5,10.7385763 8.26142375,8.5 5.5,8.5 C2.73857625,8.5 0.5,10.7385763 0.5,13.5 C0.5,13.5 0.5,14.1666667 0.5,15.5" transform="rotate(-90 5.5 12)"></path> <path d="M8,12 L16,12"></path> <path d="M23.5,15.5 C23.5,14.1666667 23.5,13.5 23.5,13.5 C23.5,10.7385763 21.2614237,8.5 18.5,8.5 C15.7385763,8.5 13.5,10.7385763 13.5,13.5 C13.5,13.5 13.5,14.1666667 13.5,15.5" transform="rotate(90 18.5 12)"></path> </symbol><symbol viewBox="0 0 24 24" id="curd-location"> <title id="locationIconTitle">Location</title> <path d="M12,21 C16,16.8 18,12.8 18,9 C18,5.6862915 15.3137085,3 12,3 C8.6862915,3 6,5.6862915 6,9 C6,12.8 8,16.8 12,21 Z"></path> <circle cx="12" cy="9" r="1"></circle> </symbol><symbol viewBox="0 0 24 24" id="curd-lock-alt-open"> <title id="lockAltOpenIconTitle">Lock</title> <path d="M7,7.625 L7,7 C7,4.23857625 9.23857625,2 12,2 L12,2 C14.7614237,2 17,4.23857625 17,7 L17,11"></path> <rect width="14" height="10" x="5" y="11"></rect> <circle cx="12" cy="16" r="1"></circle> </symbol><symbol viewBox="0 0 24 24" id="curd-lock-alt"> <title id="lockAltIconTitle">Lock</title> <rect width="14" height="10" x="5" y="11"></rect> <path d="M12,3 L12,3 C14.7614237,3 17,5.23857625 17,8 L17,11 L7,11 L7,8 C7,5.23857625 9.23857625,3 12,3 Z"></path> <circle cx="12" cy="16" r="1"></circle> </symbol><symbol viewBox="0 0 24 24" id="curd-minus"> <title id="minusIconTitle">Minus</title> <path d="M20,12 L4,12"></path> </symbol><symbol viewBox="0 0 24 24" id="curd-mute"> <title id="IconTitle">Mute</title> <path d="M18 10L22 14M18 14L22 10"></path> <path d="M13 5v14l-5-4H3V9h5z"></path> <path stroke-linecap="round" d="M13 14c1.5-1 1.5-3 0-4"></path> </symbol><symbol viewBox="0 0 24 24" id="curd-new"> <title id="newIconTitle">New</title> <path d="M19 14V22H2.99997V4H13"></path> <path d="M17.4608 4.03921C18.2418 3.25817 19.5082 3.25816 20.2892 4.03921L20.9608 4.71079C21.7418 5.49184 21.7418 6.75817 20.9608 7.53921L11.5858 16.9142C11.2107 17.2893 10.702 17.5 10.1716 17.5L7.5 17.5L7.5 14.8284C7.5 14.298 7.71071 13.7893 8.08579 13.4142L17.4608 4.03921Z"></path> <path d="M16.25 5.25L19.75 8.75"></path> </symbol><symbol viewBox="0 0 24 24" id="curd-no-entry"> <title id="noEntryIconTitle">No Entry</title> <polygon points="16 3 21 8 21 16 16 21 8 21 3 16 3 8 8 3"></polygon> <rect width="10" height="4" x="7" y="10"></rect> </symbol><symbol viewBox="0 0 24 24" id="curd-origin"> <title id="originIconTitle">Origin</title> <path fill-rule="evenodd" clip-rule="evenodd" d="M12 19C15.866 19 19 15.866 19 12C19 8.13401 15.866 5 12 5C8.13401 5 5 8.13401 5 12C5 15.866 8.13401 19 12 19Z"></path> <path d="M12 2V8"></path> <path d="M12 16V22"></path> <path d="M2 12L8 12"></path> <path d="M16 12L22 12"></path> <circle cx="12" cy="12" r="1"></circle> </symbol><symbol viewBox="0 0 24 24" id="curd-pan"> <title id="panIconTitle">Pan</title> <path d="M20,14 L20,17 C20,19.209139 18.209139,21 16,21 L10.0216594,21 C8.75045497,21 7.55493392,20.3957659 6.80103128,19.3722467 L3.34541668,14.6808081 C2.81508416,13.9608139 2.94777982,12.950548 3.64605479,12.391928 C4.35756041,11.8227235 5.38335813,11.8798792 6.02722571,12.5246028 L8,14.5 L8,13 L8.00393081,13 L8,11 L8.0174523,6.5 C8.0174523,5.67157288 8.68902517,5 9.5174523,5 C10.3458794,5 11.0174523,5.67157288 11.0174523,6.5 L11.0174523,11 L11.0174523,4.5 C11.0174523,3.67157288 11.6890252,3 12.5174523,3 C13.3458794,3 14.0174523,3.67157288 14.0174523,4.5 L14.0174523,11 L14.0174523,5.5 C14.0174523,4.67157288 14.6890252,4 15.5174523,4 C16.3458794,4 17.0174523,4.67157288 17.0174523,5.5 L17.0174523,11 L17.0174523,7.5 C17.0174523,6.67157288 17.6890252,6 18.5174523,6 C19.3458794,6 20.0174523,6.67157288 20.0174523,7.5 L20.0058962,14 L20,14 Z"></path> </symbol><symbol viewBox="0 0 24 24" id="curd-paperclip"> <title id="paperclipIconTitle">Paperclip</title> <path d="M7.93517339,13.7795989 L15.1617306,6.55304173 C16.03921,5.67631227 17.4656766,5.67631227 18.343156,6.55304173 C19.2206355,7.43052116 19.2206355,8.85773771 18.343156,9.73521714 L8.40091248,19.5477137 C6.93619681,21.0124294 4.56325242,21.0124294 3.09853675,19.5477137 C1.63382108,18.083748 1.63382108,15.7093037 3.09853675,14.245338 L12.9335328,4.53783896 C14.9839848,2.48738701 18.3094068,2.48738701 20.3568588,4.53783896 C22.4088107,6.58904088 22.4088107,9.91146301 20.3583588,11.961915 L13.2390491,19.0819746"></path> </symbol><symbol viewBox="0 0 24 24" id="curd-people"> <title id="peopleIconTitle">People</title> <path d="M1 18C1 15.75 4 15.75 5.5 14.25 6.25 13.5 4 13.5 4 9.75 4 7.25025 4.99975 6 7 6 9.00025 6 10 7.25025 10 9.75 10 13.5 7.75 13.5 8.5 14.25 10 15.75 13 15.75 13 18M12.7918114 15.7266684C13.2840551 15.548266 13.6874862 15.3832994 14.0021045 15.2317685 14.552776 14.9665463 15.0840574 14.6659426 15.5 14.25 16.25 13.5 14 13.5 14 9.75 14 7.25025 14.99975 6 17 6 19.00025 6 20 7.25025 20 9.75 20 13.5 17.75 13.5 18.5 14.25 20 15.75 23 15.75 23 18"></path> <path stroke-linecap="round" d="M12,16 C12.3662741,15.8763472 12.6302112,15.7852366 12.7918114,15.7266684"></path> </symbol><symbol viewBox="0 0 24 24" id="curd-plane"> <title id="planeIconTitle">Plane</title> <path d="M18.3937 4.3638L14 7L6 5L5 6L10.5 10.5L8 14H5L4 15L6.5 16.5L7.5 17.5L9 20L10 19V16L13.5 13.5L18 19L19 18L17 10L19.6362 5.60634C19.85 5.24999 19.7939 4.79385 19.5 4.5C19.2061 4.20615 18.75 4.14999 18.3937 4.3638Z"></path> </symbol><symbol viewBox="0 0 24 24" id="curd-plus"> <title id="plusIconTitle">Plus</title> <path d="M20 12L4 12M12 4L12 20"></path> </symbol><symbol viewBox="0 0 24 24" id="curd-poll"> <title id="pollIconTitle">Poll</title> <path d="M4 4V20"></path> <path d="M4 6H15V10H4"></path> <path d="M4 10H19V14H4"></path> <path d="M4 14H12V18H4"></path> </symbol><symbol viewBox="0 0 24 24" id="curd-qr"> <title id="qrIconTitle">QR Code</title> <rect x="10" y="3" width="7" height="7" transform="rotate(90 10 3)"></rect> <rect width="1" height="1" transform="matrix(-1 0 0 1 7 6)"></rect> <rect x="10" y="14" width="7" height="7" transform="rotate(90 10 14)"></rect> <rect x="6" y="17" width="1" height="1"></rect> <rect x="14" y="20" width="1" height="1"></rect> <rect x="17" y="17" width="1" height="1"></rect> <rect x="14" y="14" width="1" height="1"></rect> <rect x="20" y="17" width="1" height="1"></rect> <rect x="20" y="14" width="1" height="1"></rect> <rect x="20" y="20" width="1" height="1"></rect> <rect x="21" y="3" width="7" height="7" transform="rotate(90 21 3)"></rect> <rect x="17" y="6" width="1" height="1"></rect> </symbol><symbol viewBox="0 0 24 24" id="curd-radio"> <title id="radioIconTitle">Radio</title> <path d="M5.44972845 6C2.18342385 9.2663046 2.18342385 14.7336954 5.44972845 18M8.59918369 8C6.46693877 10.1322449 6.46693877 13.8677551 8.59918369 16M18.5502716 18C21.8165761 14.7336954 21.8165761 9.2663046 18.5502716 6M15.4008163 16C17.5330612 13.8677551 17.5330612 10.1322449 15.4008163 8"></path> <circle cx="12" cy="12" r="1"></circle> </symbol><symbol viewBox="0 0 24 24" id="curd-repeat"> <title id="repeatIconTitle">Repeat</title> <path d="M2 13.0399V11C2 7.68629 4.68629 5 8 5H21V5"></path> <path d="M19 2L22 5L19 8"></path> <path d="M22 9.98004V12.02C22 15.3337 19.3137 18.02 16 18.02H3V18.02"></path> <path d="M5 21L2 18L5 15"></path> </symbol><symbol viewBox="0 0 24 24" id="curd-retweet"> <title id="retweetIconTitle">Retweet</title> <path d="M13 18L6 18L6 7"></path> <path d="M3 9L6 6L9 9"></path> <path d="M11 6L18 6L18 17"></path> <path d="M21 15L18 18L15 15"></path> </symbol><symbol viewBox="0 0 24 24" id="curd-save"> <title id="saveIconTitle">Save</title> <path d="M17.2928932,3.29289322 L21,7 L21,20 C21,20.5522847 20.5522847,21 20,21 L4,21 C3.44771525,21 3,20.5522847 3,20 L3,4 C3,3.44771525 3.44771525,3 4,3 L16.5857864,3 C16.8510029,3 17.1053568,3.10535684 17.2928932,3.29289322 Z"></path> <rect width="10" height="8" x="7" y="13"></rect> <rect width="8" height="5" x="8" y="3"></rect> </symbol><symbol viewBox="0 0 24 24" id="curd-search"> <title id="searchIconTitle">Search</title> <path d="M14.4121122,14.4121122 L20,20"></path> <circle cx="10" cy="10" r="6"></circle> </symbol><symbol viewBox="0 0 24 24" id="curd-settings"> <title id="settingsIconTitle">Settings</title> <path d="M5.03506429,12.7050339 C5.01187484,12.4731696 5,12.2379716 5,12 C5,11.7620284 5.01187484,11.5268304 5.03506429,11.2949661 L3.20577137,9.23205081 L5.20577137,5.76794919 L7.9069713,6.32070904 C8.28729123,6.0461342 8.69629298,5.80882212 9.12862533,5.61412402 L10,3 L14,3 L14.8713747,5.61412402 C15.303707,5.80882212 15.7127088,6.0461342 16.0930287,6.32070904 L18.7942286,5.76794919 L20.7942286,9.23205081 L18.9649357,11.2949661 C18.9881252,11.5268304 19,11.7620284 19,12 C19,12.2379716 18.9881252,12.4731696 18.9649357,12.7050339 L20.7942286,14.7679492 L18.7942286,18.2320508 L16.0930287,17.679291 C15.7127088,17.9538658 15.303707,18.1911779 14.8713747,18.385876 L14,21 L10,21 L9.12862533,18.385876 C8.69629298,18.1911779 8.28729123,17.9538658 7.9069713,17.679291 L5.20577137,18.2320508 L3.20577137,14.7679492 L5.03506429,12.7050339 Z"></path> <circle cx="12" cy="12" r="1"></circle> </symbol><symbol viewBox="0 0 24 24" id="curd-share-android"> <title id="shareAndroidIconTitle">Share</title> <path d="M16 8L8 11 16 8zM16 16L8 13 16 16z"></path> <circle cx="6" cy="12" r="2"></circle> <circle cx="18" cy="7" r="2"></circle> <circle cx="18" cy="17" r="2"></circle> </symbol><symbol viewBox="0 0 24 24" id="curd-share"> <title id="shareIconTitle">Share</title> <path d="M12 14V6"></path> <path d="M9 8L12 5L15 8"></path> <path d="M5 13V18H19V13"></path> </symbol><symbol viewBox="0 0 24 24" id="curd-shift"> <title id="shiftIconTitle">Shift</title> <path d="M5,21 L19,21 L5,21 Z M16,12 L16,17 L8,17 L8,12 L3,12 L12,3 L21,12 L16,12 Z"></path> </symbol><symbol viewBox="0 0 24 24" id="curd-shuffle"> <title id="shuffleIconTitle">Shuffle</title> <path d="M21 16.0399H17.7707C15.8164 16.0399 13.9845 14.9697 12.8611 13.1716L10.7973 9.86831C9.67384 8.07022 7.84196 7 5.88762 7L3 7"></path> <path d="M21 7H17.7707C15.8164 7 13.9845 8.18388 12.8611 10.1729L10.7973 13.8271C9.67384 15.8161 7.84196 17 5.88762 17L3 17"></path> <path d="M19 4L22 7L19 10"></path> <path d="M19 13L22 16L19 19"></path> </symbol><symbol viewBox="0 0 24 24" id="curd-signal"> <title id="signalAltIconTitle">Signal</title> <path d="M18 5C11.372583 5 6 10.372583 6 17M18 9C13.581722 9 10 12.581722 10 17M18 13C15.790861 13 14 14.790861 14 17"></path> </symbol><symbol viewBox="0 0 24 24" id="curd-sort-down"> <title id="sortDownIconTitle">Sort in descending order</title> <path d="M11 9H17"></path> <path d="M11 5H19"></path> <path d="M11 13H15"></path> <path d="M10 17L7 20L4 17"></path> <path d="M7 5V19"></path> </symbol><symbol viewBox="0 0 24 24" id="curd-sort-up"> <title id="sortUpIconTitle">Sort in ascending order</title> <path d="M11 16H17"></path> <path d="M11 20H19"></path> <path d="M11 12H15"></path> <path d="M4 8L7 5L10 8"></path> <path d="M7 20L7 6"></path> </symbol><symbol viewBox="0 0 24 24" id="curd-sounds"> <title id="soundsIconTitle">Sounds</title> <path d="M12 7L12 17"></path> <path d="M15 10L15 14"></path> <path d="M18 8L18 16"></path> <path d="M21 13L21 11"></path> <path d="M9 4L9 20"></path> <path d="M6 9L6 15"></path> <path d="M3 13L3 11"></path> </symbol><symbol viewBox="0 0 24 24" id="curd-stack"> <title id="stackIconTitle">Stack</title> <path d="M10 7L14 7M6 12L18 12M3 17L21 17"></path> </symbol><symbol viewBox="0 0 24 24" id="curd-star"> <title id="starIconTitle">Star</title> <polygon points="12 17.844 6.183 20.902 7.294 14.425 2.588 9.838 9.092 8.893 12 3 14.908 8.893 21.412 9.838 16.706 14.425 17.817 20.902"></polygon> </symbol><symbol viewBox="0 0 24 24" id="curd-stats-alt"> <title id="statsAltIconTitle">Stats</title> <path d="M14 6L8 6M21 10L8 10M4 18L4 6M18 14L8 14M10 18L8 18"></path> </symbol><symbol viewBox="0 0 24 24" id="curd-stats"> <title id="statsIconTitle">Stats</title> <path d="M6 7L15 7M6 12L18 12M6 17L12 17"></path> </symbol><symbol viewBox="0 0 24 24" id="curd-swap-horizontal"> <title id="swapHorizontalIconTitle">Swap items (horizontally)</title> <path d="M16 4L19 7L16 10"></path> <path d="M4 7L18 7"></path> <path d="M7 20L4 17L7 14"></path> <path d="M19 17L5 17"></path> </symbol><symbol viewBox="0 0 24 24" id="curd-swap-vertical"> <title id="swapVerticalIconTitle">Swap items (vertically)</title> <desc id="swapVerticalIconDesc"></desc> <path d="M4 8L7 5L10 8"></path> <path d="M7 20L7 6"></path> <path d="M20 17L17 20L14 17"></path> <path d="M17 5L17 19"></path> </symbol><symbol viewBox="0 0 24 24" id="curd-thumb-up"> <title id="thumbUpIconTitle">Thumb Up</title> <path d="M8,8.73984815 C8,8.26242561 8.17078432,7.80075162 8.4814868,7.43826541 L13.2723931,1.84887469 C13.7000127,1.34998522 14.4122932,1.20614658 15,1.5 C15.5737957,1.78689785 15.849314,2.45205792 15.6464466,3.06066017 L14,8 L18.6035746,8 C18.7235578,8 18.8432976,8.01079693 18.9613454,8.03226018 C20.0480981,8.22985158 20.7689058,9.27101818 20.5713144,10.3577709 L19.2985871,17.3577709 C19.1256814,18.3087523 18.2974196,19 17.3308473,19 L10,19 C8.8954305,19 8,18.1045695 8,17 L8,8.73984815 Z"></path> <path d="M4,18 L4,9"></path> </symbol><symbol viewBox="0 0 24 24" id="curd-trending-down"> <title id="trendingDownIconTitle">trending</title> <path d="M3 7l6 6 4-4 7.405 7.405"></path> <path stroke-linecap="round" d="M20.405 16.405L21 17"></path> <path d="M21 14v3h-3"></path> </symbol><symbol viewBox="0 0 24 24" id="curd-typography"> <title id="typographyIconTitle">Typography</title> <path d="M4 8L5 4H12M20 8L19 4H12M12 4V20M12 20H8M12 20H16"></path> </symbol><symbol viewBox="0 0 24 24" id="curd-user"> <title id="userIconTitle">User</title> <path stroke-linecap="round" d="M5.5,19.5 C7.83333333,18.5 9.33333333,17.6666667 10,17 C11,16 8,16 8,11 C8,7.66666667 9.33333333,6 12,6 C14.6666667,6 16,7.66666667 16,11 C16,16 13,16 14,17 C14.6666667,17.6666667 16.1666667,18.5 18.5,19.5"></path> <circle cx="12" cy="12" r="10"></circle> </symbol><symbol viewBox="0 0 24 24" id="curd-vertical"> <title id="verticalIconTitle">Vertical Layout</title> <path d="M17 18L17 6M12 18L12 6M7 18L7 6"></path> </symbol><symbol viewBox="0 0 24 24" id="curd-volume-loud"> <title id="volumeLoudIconTitle">Volume Loud</title> <path d="M13 5v14l-5-4H3V9h5z"></path> <path stroke-linecap="round" d="M13 14c1.5-1 1.5-3 0-4"></path> <path d="M16 16C18.0858253 13.9141747 18.0858253 10.0858253 16 8M18 19C21.98552 15.01448 22.0076803 9.00768033 18 5"></path> </symbol><symbol viewBox="0 0 24 24" id="curd-wallpaper"> <title id="wallpaperIconTitle">Wallpaper</title> <circle cx="12" cy="7" r="3"></circle> <circle cx="12" cy="17" r="3"></circle> <circle cx="16.3301" cy="9.50005" r="3" transform="rotate(60 16.3301 9.50005)"></circle> <circle cx="7.66987" cy="14.5001" r="3" transform="rotate(60 7.66987 14.5001)"></circle> <circle cx="7.66985" cy="9.49995" r="3" transform="rotate(-60 7.66985 9.49995)"></circle> <circle cx="16.3301" cy="14.4999" r="3" transform="rotate(-60 16.3301 14.4999)"></circle> </symbol><symbol viewBox="0 0 24 24" id="curd-wheelchair"> <title id="wheelChairIconTitle">Accessibility (wheelchair)</title> <path d="M15 17C15 19.7614 12.7614 22 10 22C7.23858 22 5 19.7614 5 17C5 14.9497 6.2341 13.1876 8 12.416"></path> <circle cx="11" cy="3" r="1"></circle> <path d="M19 21.5L17.3959 15.4847C17.1624 14.6092 16.3695 14 15.4634 14H11V7L17 10"></path> </symbol><symbol viewBox="0 0 24 24" id="curd-wifi"> <title id="wifiIconTitle">Wi-Fi</title> <path d="M21.2279221 11.0355339C16.2377345 6.04534632 8.14704183 6.04534632 3.15685425 11.0355339M17.6137085 14.6497475C14.6195959 11.6556349 9.76518036 11.6556349 6.77106781 14.6497475M13.9994949 18.263961C13.0014574 17.2659235 11.3833189 17.2659235 10.3852814 18.263961"></path> </symbol><symbol viewBox="0 0 24 24" id="curd-zoom-in"> <title id="zoomInIconTitle">Zoom In</title> <path d="M4,20 L9.58788778,14.4121122"></path> <path d="M14,16 C10.6862915,16 8,13.3137085 8,10 C8,6.6862915 10.6862915,4 14,4 C17.3137085,4 20,6.6862915 20,10 C20,13.3137085 17.3137085,16 14,16 Z"></path> <path d="M16.6666667 10L11.3333333 10M14 7.33333333L14 12.6666667"></path> </symbol><symbol viewBox="0 0 24 24" id="curd-zoom-out"> <title id="zoomOutIconTitle">Zoom Out</title> <path d="M14,16 C10.6862915,16 8,13.3137085 8,10 C8,6.6862915 10.6862915,4 14,4 C17.3137085,4 20,6.6862915 20,10 C20,13.3137085 17.3137085,16 14,16 Z"></path> <path d="M16.6666667 10L11.3333333 10M4 20L9.58788778 14.4121122"></path> </symbol></svg>