<?xml version="1.0" standalone="no"?>
<!DOCTYPE svg PUBLIC "-//W3C//DTD SVG 1.1//EN" "http://www.w3.org/Graphics/SVG/1.1/DTD/svg11.dtd" >
<svg xmlns="http://www.w3.org/2000/svg">
<defs>
  <font id="curd" horiz-adv-x="1000">
    <font-face font-family="curd"
      units-per-em="1000" ascent="1000"
      descent="0" />
    <missing-glyph horiz-adv-x="0" />
    <glyph glyph-name="alignCenter"
      unicode="&#xEA01;"
      horiz-adv-x="1000" d="M333.3333333333333 583.3333333333334L666.6666666666666 583.3333333333334M250 750L750 750M250 416.6666666666668L750 416.6666666666668M333.3333333333333 250L666.6666666666666 250" />
    <glyph glyph-name="alignLeft"
      unicode="&#xEA02;"
      horiz-adv-x="1000" d="M250 583.3333333333334L583.3333333333333 583.3333333333334M250 750L750 750M250 416.6666666666668L750 416.6666666666668M250 250L583.3333333333333 250" />
    <glyph glyph-name="alignRight"
      unicode="&#xEA03;"
      horiz-adv-x="1000" d="M416.6666666666667 583.3333333333334H750M250 750H750M250 416.6666666666668H750M416.6666666666667 250H750" />
    <glyph glyph-name="anchor"
      unicode="&#xEA04;"
      horiz-adv-x="1000" d="M500 166.6666666666668L500 708.3333333333334M375 583.3333333333334L625 583.3333333333334M416.6666666666667 791.6666666666667A83.3333333333333 83.3333333333333 0 0 1 583.3333333333333 791.6666666666667A83.3333333333333 83.3333333333333 0 0 1 416.6666666666667 791.6666666666667M833.3333333333333 416.6666666666668C777.7777791666666 250 666.6666666666666 166.6666666666668 500 166.6666666666668C333.3333333333333 166.6666666666668 222.2222220833333 250 166.6666666666667 416.6666666666668" />
    <glyph glyph-name="aperture"
      unicode="&#xEA05;"
      horiz-adv-x="1000" d="M500 83.3333333333334C730.1166666666667 83.3333333333334 916.6666666666666 269.8833333333334 916.6666666666666 500C916.6666666666666 730.1187500000001 730.1166666666667 916.6666666666666 500 916.6666666666666C269.88125 916.6666666666666 83.3333333333333 730.1187500000001 83.3333333333333 500C83.3333333333333 269.8833333333334 269.88125 83.3333333333334 500 83.3333333333334zM125 333.3333333333334H596.5166666666667M168.1620833333333 741.4270833333334L403.4404166666667 333.9125M543.1624999999999 908.09375L307.4545833333334 499.8333333333334M456.8375 91.9083333333334L692.275 499.6916666666667M831.8374999999999 258.5750000000001L596.1916666666666 666.7225000000001M875 667.1995833333333H404.935" />
    <glyph glyph-name="apps"
      unicode="&#xEA06;"
      horiz-adv-x="1000" d="M208.3333333333333 750A41.6666666666667 41.6666666666667 0 0 1 291.6666666666667 750A41.6666666666667 41.6666666666667 0 0 1 208.3333333333333 750M458.3333333333333 750A41.6666666666667 41.6666666666667 0 0 1 541.6666666666666 750A41.6666666666667 41.6666666666667 0 0 1 458.3333333333333 750M708.3333333333333 750A41.6666666666667 41.6666666666667 0 0 1 791.6666666666666 750A41.6666666666667 41.6666666666667 0 0 1 708.3333333333333 750M208.3333333333333 500A41.6666666666667 41.6666666666667 0 0 1 291.6666666666667 500A41.6666666666667 41.6666666666667 0 0 1 208.3333333333333 500M458.3333333333333 500A41.6666666666667 41.6666666666667 0 0 1 541.6666666666666 500A41.6666666666667 41.6666666666667 0 0 1 458.3333333333333 500M708.3333333333333 500A41.6666666666667 41.6666666666667 0 0 1 791.6666666666666 500A41.6666666666667 41.6666666666667 0 0 1 708.3333333333333 500M208.3333333333333 250A41.6666666666667 41.6666666666667 0 0 1 291.6666666666667 250A41.6666666666667 41.6666666666667 0 0 1 208.3333333333333 250M458.3333333333333 250A41.6666666666667 41.6666666666667 0 0 1 541.6666666666666 250A41.6666666666667 41.6666666666667 0 0 1 458.3333333333333 250M708.3333333333333 250A41.6666666666667 41.6666666666667 0 0 1 791.6666666666666 250A41.6666666666667 41.6666666666667 0 0 1 708.3333333333333 250" />
    <glyph glyph-name="arrow-down"
      unicode="&#xEA07;"
      horiz-adv-x="1000" d="M250 375L500 125L750 375M500 875V166.6666666666668M500 125V166.6666666666668" />
    <glyph glyph-name="arrow-left-bottom"
      unicode="&#xEA08;"
      horiz-adv-x="1000" d="M208.3333333333333 541.6666666666667V208.3333333333334H541.6666666666666M208.3333333333333 208.3333333333334L250 250M250 250L791.6666666666666 791.6666666666667" />
    <glyph glyph-name="arrow-left-top"
      unicode="&#xEA09;"
      horiz-adv-x="1000" d="M208.3333333333333 458.3333333333334V791.6666666666667H541.6666666666666M208.3333333333333 791.6666666666667L250 750M250 750L791.6666666666666 208.3333333333334" />
    <glyph glyph-name="arrow-left"
      unicode="&#xEA0A;"
      horiz-adv-x="1000" d="M375 750L125 500L375 250M875 500H166.6666666666667M125 500H166.6666666666667" />
    <glyph glyph-name="arrow-right-bottom"
      unicode="&#xEA0B;"
      horiz-adv-x="1000" d="M791.6666666666666 541.6666666666667V208.3333333333334H458.3333333333333M791.6666666666666 208.3333333333334L750 250M750 250L208.3333333333333 791.6666666666667" />
    <glyph glyph-name="arrow-right-top"
      unicode="&#xEA0C;"
      horiz-adv-x="1000" d="M791.6666666666666 458.3333333333334V791.6666666666667H458.3333333333333M791.6666666666666 791.6666666666667L750 750M750 750L208.3333333333333 208.3333333333334" />
    <glyph glyph-name="arrow-right"
      unicode="&#xEA0D;"
      horiz-adv-x="1000" d="M625 250L875 500L625 750M125 500H833.3333333333333M875 500H833.3333333333333" />
    <glyph glyph-name="arrow-up"
      unicode="&#xEA0E;"
      horiz-adv-x="1000" d="M750 625L500 875L250 625M500 125V833.3333333333334M500 875V833.3333333333334" />
    <glyph glyph-name="bell"
      unicode="&#xEA0F;"
      horiz-adv-x="1000" d="M750 625C750 555.5555541666668 750 486.1111125 750 416.6666666666668C750 333.3333333333334 777.7777779166667 277.7777791666668 833.3333333333333 250L166.6666666666667 250C222.2222208333333 277.7777791666668 250 333.3333333333334 250 416.6666666666667C250 486.1111125 250 555.5555541666665 250 625L250 625C250 763.0711875 361.9288125 875 500 875L500 875C638.0711875 875 750 763.0711875 750 625zM416.6666666666667 250C416.6666666666667 203.9762708333334 453.9762708333333 166.6666666666668 500 166.6666666666668C546.0237291666666 166.6666666666668 583.3333333333333 203.9762708333334 583.3333333333333 250" />
    <glyph glyph-name="bin"
      unicode="&#xEA10;"
      horiz-adv-x="1000" d="M791.6666666666666 750L208.3333333333333 750M583.3333333333333 791.6666666666667L416.6666666666667 791.6666666666667M250 583.3333333333334L250 166.6666666666668C250 138.8888875 263.88888875 125 291.6666666666667 125C319.4444445833333 125 458.3333333333333 125 708.3333333333333 125C736.1111125 125 750 138.8888875 750 166.6666666666668C750 194.4444458333334 750 333.3333333333334 750 583.3333333333334" />
    <glyph glyph-name="bolt"
      unicode="&#xEA11;"
      horiz-adv-x="1000" d="M208.3333333333333 416.6666666666668L541.6666666666666 875V583.3333333333334H750L416.6666666666667 125V416.6666666666668z" />
    <glyph glyph-name="camera-rear"
      unicode="&#xEA12;"
      horiz-adv-x="1000" d="M250 500L333.3333333333333 583.3333333333334L416.6666666666667 500M333.3333333333333 458.3333333333334A166.6666666666667 166.6666666666667 0 0 1 500 291.6666666666668M666.6666666666666 458.3333333333334A166.6666666666667 166.6666666666667 0 0 1 500 625M333.3333333333333 500V458.3333333333334M333.3333333333333 583.3333333333334V458.3333333333334M666.6666666666666 458.3333333333334V333.3333333333334M750 416.6666666666668L666.6666666666666 333.3333333333334L583.3333333333333 416.6666666666668M333.3333333333333 708.3333333333334L364.1666666666667 754.5833333333334A83.3333333333333 83.3333333333333 0 0 0 433.5 791.6666666666667H566.5A83.3333333333333 83.3333333333333 0 0 0 635.8333333333333 754.5833333333334L666.6666666666666 708.3333333333334H875V166.6666666666668H125V708.3333333333334H333.3333333333333z" />
    <glyph glyph-name="camera"
      unicode="&#xEA13;"
      horiz-adv-x="1000" d="M333.3333333333333 708.3333333333334L364.1666666666667 754.5833333333334A83.3333333333333 83.3333333333333 0 0 0 433.5 791.6666666666667H566.5A83.3333333333333 83.3333333333333 0 0 0 635.8333333333333 754.5833333333334L666.6666666666666 708.3333333333334H875V250H125V708.3333333333334H333.3333333333333zM375 500A125 125 0 0 1 625 500A125 125 0 0 1 375 500" />
    <glyph glyph-name="celluar"
      unicode="&#xEA14;"
      horiz-adv-x="1000" d="M750 708.3333333333334L750 250M583.3333333333333 583.3333333333334L583.3333333333333 250M416.6666666666667 458.3333333333334L416.6666666666667 250M250 333.3333333333334L250 250" />
    <glyph glyph-name="chart"
      unicode="&#xEA15;"
      horiz-adv-x="1000" d="M83.3333333333333 500L83.3333333333333 125L250 125L250 500zM750 708.3333333333334L750 125L916.6666666666666 125L916.6666666666666 708.3333333333334zM416.6666666666667 875L416.6666666666667 125L583.3333333333333 125L583.3333333333333 875z" />
    <glyph glyph-name="chat"
      unicode="&#xEA16;"
      horiz-adv-x="1000" d="M367.6618562500001 225.4975958333333L166.6666666666667 125L193.88456 315.5252541666668C125.26217125 374.9458333333334 83.3333333333333 454.38905 83.3333333333333 541.6666666666667C83.3333333333333 725.7615833333334 269.8813541666667 875 500 875C730.1186458333333 875 916.6666666666666 725.7615833333334 916.6666666666666 541.6666666666667C916.6666666666666 357.57175 730.1186458333333 208.3333333333334 500 208.3333333333334C453.7392708333333 208.3333333333334 409.2393633333333 214.3645083333333 367.6618562500001 225.4975958333333z" />
    <glyph glyph-name="circle"
      unicode="&#xEA17;"
      horiz-adv-x="1000" d="M166.6666666666667 500A333.3333333333333 333.3333333333333 0 0 1 833.3333333333333 500A333.3333333333333 333.3333333333333 0 0 1 166.6666666666667 500" />
    <glyph glyph-name="clip"
      unicode="&#xEA18;"
      horiz-adv-x="1000" d="M330.6320833333333 425.85L631.7375 726.9566666666667C668.3 763.4870833333333 727.7374999999998 763.4870833333333 764.3 726.9566666666667C800.8583333333333 690.395 800.8583333333333 630.9275 764.3 594.3658333333333L350.0379166666667 185.5125000000001C289.0083333333334 124.4833333333334 190.1354166666667 124.4833333333334 129.1058333333333 185.5125000000001C68.0758333333333 246.5125000000001 68.0758333333333 345.4458333333334 129.1058333333333 406.4458333333334L538.8958333333334 810.9233333333334C624.3333333333333 896.35875 762.8916666666667 896.35875 848.2041666666667 810.9233333333334C933.7 725.4566666666667 933.7 587.0225 848.2666666666667 501.5875L551.625 204.9166666666666" />
    <glyph glyph-name="close"
      unicode="&#xEA19;"
      horiz-adv-x="1000" d="M264.2977395833333 735.7022604166667L735.7022583333334 264.2977416666667M264.2977395833333 264.2977416666667L735.7022583333334 735.7022604166667" />
    <glyph glyph-name="cloud-crossed"
      unicode="&#xEA1A;"
      horiz-adv-x="1000" d="M541.6666666666666 750C665.9083333333333 750 768.9791666666666 659.3733333333334 788.3833333333332 540.6208333333334C860.65 531.9541666666667 916.6666666666666 470.4333333333334 916.6666666666666 395.8333333333334C916.6666666666666 315.2916666666668 851.375 250 770.8333333333333 250H270.8333333333333C167.28 250 83.3333333333333 333.9458333333334 83.3333333333333 437.5C83.3333333333333 541.0541666666668 167.28 625 270.8333333333333 625C288.3120833333333 625 305.2316666666667 622.6083333333333 321.28375 618.1345833333332C363.44875 696.6295833333334 446.325 750 541.6666666666666 750zM125 125L833.3333333333333 833.3333333333334" />
    <glyph glyph-name="cloud"
      unicode="&#xEA1B;"
      horiz-adv-x="1000" d="M270.8333333333333 250C167.2799429166667 250 83.3333333333333 333.9466083333334 83.3333333333333 437.5C83.3333333333333 541.0533916666667 167.2799429166667 625 270.8333333333333 625C288.3118708333333 625 305.231825 622.60842125 321.2838091666667 618.1346508333334C363.44875 696.62954625 446.3250416666666 750 541.6666666666666 750C665.9062583333333 750 768.9788625 659.3733775000001 788.3831291666665 540.6214958333333C860.6496999999999 531.9538125 916.6666666666666 470.4353041666667 916.6666666666666 395.8333333333334C916.6666666666666 315.2918083333334 851.3748583333332 250 770.8333333333333 250L270.8333333333333 250z" />
    <glyph glyph-name="code-alt"
      unicode="&#xEA1C;"
      horiz-adv-x="1000" d="M291.6666666666667 666.6666666666667L125 500L291.6666666666667 333.3333333333334M708.3333333333333 333.3333333333334L875 500L708.3333333333333 666.6666666666667M375 187.5L604.1666666666666 791.6666666666667" />
    <glyph glyph-name="code"
      unicode="&#xEA1D;"
      horiz-adv-x="1000" d="M291.6666666666667 666.6666666666667L125 500L291.6666666666667 333.3333333333334M708.3333333333333 333.3333333333334L875 500L708.3333333333333 666.6666666666667" />
    <glyph glyph-name="coffee"
      unicode="&#xEA1E;"
      horiz-adv-x="1000" d="M208.3333333333333 500H708.3333333333333V291.6666666666668C708.3333333333333 176.6083333333335 615.0583333333333 83.3333333333334 500 83.3333333333334H416.6666666666667C301.6075 83.3333333333334 208.3333333333333 176.6083333333335 208.3333333333333 291.6666666666668V500zM708.3333333333333 458.3333333333334H791.6666666666666C837.6916666666667 458.3333333333334 875 421.025 875 375V375C875 328.975 837.6916666666667 291.6666666666668 791.6666666666666 291.6666666666668H708.3333333333333M375 625C375 625 333.3333333333333 645.8333333333334 333.3333333333333 708.3333333333334C333.3333333333333 770.8333333333334 375 791.6666666666667 375 791.6666666666667M500 875C500 875 541.6666666666666 854.1666666666667 541.6666666666666 791.6666666666667C541.6666666666666 729.1666666666667 500 708.3333333333334 500 708.3333333333334" />
    <glyph glyph-name="colours"
      unicode="&#xEA1F;"
      horiz-adv-x="1000" d="M291.6666666666667 625A208.3333333333334 208.3333333333334 0 0 1 708.3333333333333 625A208.3333333333334 208.3333333333334 0 0 1 291.6666666666667 625M166.6666666666667 416.6666666666668A208.3333333333334 208.3333333333334 0 0 1 583.3333333333333 416.6666666666668A208.3333333333334 208.3333333333334 0 0 1 166.6666666666667 416.6666666666668M416.6666666666667 416.6666666666668A208.3333333333334 208.3333333333334 0 0 1 833.3333333333333 416.6666666666668A208.3333333333334 208.3333333333334 0 0 1 416.6666666666667 416.6666666666668" />
    <glyph glyph-name="component"
      unicode="&#xEA20;"
      horiz-adv-x="1000" d="M500 749.5673529411765L583.1890330807703 666.3783198604062L500 583.189286779636L416.8109669192297 666.3783198604062L500 749.5673529411765zM645.5823529411765 603.9852941176471L728.7705882352941 520.7970588235294L645.5823529411765 437.6088235294118L562.3911764705882 520.7970588235294L645.5823529411765 603.9852941176471zM354.4176470588236 603.9852941176471L437.6066801395939 520.7962610368768L354.4176470588236 437.6072279561065L271.2286139780533 520.7962610368768L354.4176470588236 603.9852941176471zM500.0000000000001 458.4058823529413L583.1890330807704 375.2168492721709L500.0000000000001 292.0278161914006L416.8109669192298 375.2168492721709L500.0000000000001 458.4058823529413z" />
    <glyph glyph-name="control-centre"
      unicode="&#xEA21;"
      horiz-adv-x="1000" d="M166.6666666666667 729.1666666666667C166.6666666666667 809.7083333333334 231.9583333333333 875 312.5 875L687.5 875C768.0416666666666 875 833.3333333333333 809.7083333333334 833.3333333333333 729.1666666666667V729.1666666666667C833.3333333333333 648.625 768.0416666666666 583.3333333333334 687.5 583.3333333333334L312.5 583.3333333333334C231.9583333333333 583.3333333333334 166.6666666666667 648.625 166.6666666666667 729.1666666666667V729.1666666666667zM833.3333333333333 270.8333333333334C833.3333333333333 190.2916666666668 768.0416666666666 125 687.5 125L312.5 125C231.9583333333333 125 166.6666666666667 190.2916666666668 166.6666666666667 270.8333333333334V270.8333333333334C166.6666666666667 351.375 231.9583333333333 416.6666666666668 312.5 416.6666666666668L687.5 416.6666666666668C768.0416666666666 416.6666666666668 833.3333333333333 351.375 833.3333333333333 270.8333333333334V270.8333333333334zM645.8333333333333 270.8333333333334A41.6666666666667 41.6666666666667 0 0 1 729.1666666666666 270.8333333333334A41.6666666666667 41.6666666666667 0 0 1 645.8333333333333 270.8333333333334M270.8333333333333 729.1666666666667A41.6666666666667 41.6666666666667 0 0 1 354.1666666666667 729.1666666666667A41.6666666666667 41.6666666666667 0 0 1 270.8333333333333 729.1666666666667" />
    <glyph glyph-name="controls-alt"
      unicode="&#xEA22;"
      horiz-adv-x="1000" d="M291.6666666666667 750A83.3333333333333 83.3333333333333 0 0 1 458.3333333333333 750A83.3333333333333 83.3333333333333 0 0 1 291.6666666666667 750M166.6666666666667 750H291.6666666666667M458.3333333333333 750H833.3333333333333M291.6666666666667 250A83.3333333333333 83.3333333333333 0 0 1 458.3333333333333 250A83.3333333333333 83.3333333333333 0 0 1 291.6666666666667 250M166.6666666666667 250H291.6666666666667M458.3333333333333 250H833.3333333333333M541.6666666666666 500A83.3333333333333 83.3333333333333 0 0 1 708.3333333333333 500A83.3333333333333 83.3333333333333 0 0 1 541.6666666666666 500M166.6666666666667 500H541.6666666666666M708.3333333333333 500L833.3333333333333 500" />
    <glyph glyph-name="controls-vertical-alt"
      unicode="&#xEA23;"
      horiz-adv-x="1000" d="M750 708.3333333333334A83.3333333333333 83.3333333333333 0 0 1 750 541.6666666666667A83.3333333333333 83.3333333333333 0 0 1 750 708.3333333333334M750 833.3333333333334L750 708.3333333333334M750 541.6666666666667L750 166.6666666666668M250 708.3333333333334A83.3333333333333 83.3333333333333 0 0 1 250 541.6666666666667A83.3333333333333 83.3333333333333 0 0 1 250 708.3333333333334M250 833.3333333333334L250 708.3333333333334M250 541.6666666666667L250 166.6666666666668M500 458.3333333333334A83.3333333333333 83.3333333333333 0 0 1 500 291.6666666666668A83.3333333333333 83.3333333333333 0 0 1 500 458.3333333333334M500 833.3333333333334L500 458.3333333333334M500 291.6666666666668L500 166.6666666666668" />
    <glyph glyph-name="controls"
      unicode="&#xEA24;"
      horiz-adv-x="1000" d="M708.3333333333333 250L708.3333333333333 750M500 250L500 750M291.6666666666667 250L291.6666666666667 750M208.3333333333333 666.6666666666667L375 666.6666666666667M416.6666666666667 333.3333333333334L583.3333333333333 333.3333333333334M625 500L791.6666666666666 500" />
    <glyph glyph-name="crossing"
      unicode="&#xEA25;"
      horiz-adv-x="1000" d="M238.1208333333334 150.5208333333334L602.175 604.29625C633.8083333333333 643.725 681.625 666.6666666666667 732.175 666.6666666666667L875 666.6666666666667V666.6666666666667M750 833.3333333333334L916.6666666666666 666.6666666666667L750 500M125.00125 666.66625L267.8241666666667 666.66625C318.37375 666.66625 366.19125 643.7245833333334 397.8241666666666 604.2958333333333L761.8791666666666 150.5208333333334M250 500L83.3333333333333 666.6666666666667L250 833.3333333333334" />
    <glyph glyph-name="cursor"
      unicode="&#xEA26;"
      horiz-adv-x="1000" d="M291.6666666666667 166.6666666666668L291.6666666666667 833.3333333333334L791.6666666666666 333.3333333333334L500 333.3333333333334L291.6666666666667 125z" />
    <glyph glyph-name="cut"
      unicode="&#xEA27;"
      horiz-adv-x="1000" d="M125 250L625 625M625 375L125 750M625 708.3333333333334A125 125 0 0 1 875 708.3333333333334A125 125 0 0 1 625 708.3333333333334M625 291.6666666666668A125 125 0 0 1 875 291.6666666666668A125 125 0 0 1 625 291.6666666666668" />
    <glyph glyph-name="delete"
      unicode="&#xEA28;"
      horiz-adv-x="1000" d="M833.3333333333333 250L375 250L125 500L375 750L833.3333333333333 750zM504.7659125 578.5674208333334L661.9007541666666 421.4325791666667M504.7659125 421.4325791666667L661.9007541666666 578.5674208333334" />
    <glyph glyph-name="direction-left"
      unicode="&#xEA29;"
      horiz-adv-x="1000" d="M250 708.3333333333334H548.6125C548.6125 708.3333333333334 791.6666666666666 708.3333333333334 791.6666666666666 465.2791666666667C791.6666666666666 222.2208333333334 791.6666666666666 125 791.6666666666666 125M375 541.6666666666667L208.3333333333333 708.3333333333334L375 875" />
    <glyph glyph-name="direction-right"
      unicode="&#xEA2A;"
      horiz-adv-x="1000" d="M750 708.3333333333334H451.3874999999999C451.3874999999999 708.3333333333334 208.3333333333333 708.3333333333334 208.3333333333333 465.2791666666667C208.3333333333333 222.2208333333334 208.3333333333333 125 208.3333333333333 125M625 541.6666666666667L791.6666666666666 708.3333333333334L625 875" />
    <glyph glyph-name="drop"
      unicode="&#xEA2B;"
      horiz-adv-x="1000" d="M500 125C638.0711875 125 750 233.7327208333334 750 375C750 513.8888875 666.6666666666666 666.6666666666667 500 833.3333333333334C333.3333333333333 666.6666666666667 250 513.8888875 250 375C250 233.7327208333334 361.9288125 125 500 125z" />
    <glyph glyph-name="edit"
      unicode="&#xEA2C;"
      horiz-adv-x="1000" d="M767.2588999999999 816.074435L816.0744333333333 767.2588983333334C848.6181249999998 734.7152075 848.6181249999998 681.9514591666666 816.0744333333333 649.4077683333334L333.3333333333333 166.6666666666668L166.6666666666667 166.6666666666668L166.6666666666667 333.3333333333334L649.4077666666666 816.074435C681.9514583333332 848.6181258333334 734.7152083333334 848.6181258333334 767.2588999999999 816.074435zM583.3333333333333 750L750 583.3333333333334" />
    <glyph glyph-name="ellypsis-vertical"
      unicode="&#xEA2D;"
      horiz-adv-x="1000" d="M458.3333333333333 500C458.3333333333333 523.0118625 476.9881375 541.6666666666667 500 541.6666666666667C523.0118625 541.6666666666667 541.6666666666666 523.0118625 541.6666666666666 500C541.6666666666666 476.9881375 523.0118625 458.3333333333334 500 458.3333333333334C476.9881375 458.3333333333334 458.3333333333333 476.9881375 458.3333333333333 500zM458.3333333333333 750C458.3333333333333 773.0118645833334 476.9881375 791.6666666666667 500 791.6666666666667C523.0118625 791.6666666666667 541.6666666666666 773.0118645833334 541.6666666666666 750C541.6666666666666 726.9881354166666 523.0118625 708.3333333333334 500 708.3333333333334C476.9881375 708.3333333333334 458.3333333333333 726.9881354166666 458.3333333333333 750zM458.3333333333333 250C458.3333333333333 273.0118625000001 476.9881375 291.6666666666668 500 291.6666666666668C523.0118625 291.6666666666668 541.6666666666666 273.0118625000001 541.6666666666666 250C541.6666666666666 226.9881375 523.0118625 208.3333333333334 500 208.3333333333334C476.9881375 208.3333333333334 458.3333333333333 226.9881375 458.3333333333333 250z" />
    <glyph glyph-name="ellypsis"
      unicode="&#xEA2E;"
      horiz-adv-x="1000" d="M458.3333333333333 500A41.6666666666667 41.6666666666667 0 0 1 541.6666666666666 500A41.6666666666667 41.6666666666667 0 0 1 458.3333333333333 500M208.3333333333333 500A41.6666666666667 41.6666666666667 0 0 1 291.6666666666667 500A41.6666666666667 41.6666666666667 0 0 1 208.3333333333333 500M708.3333333333333 500A41.6666666666667 41.6666666666667 0 0 1 791.6666666666666 500A41.6666666666667 41.6666666666667 0 0 1 708.3333333333333 500" />
    <glyph glyph-name="envelope"
      unicode="&#xEA2F;"
      horiz-adv-x="1000" d="M83.3333333333333 791.6666666666667H916.6666666666666V208.3333333333334H83.3333333333333V791.6666666666667zM83.3333333333333 791.6666666666667L500 416.6666666666668L916.6666666666666 791.6666666666667M83.3333333333333 208.3333333333334L367.7083333333333 533.3333333333334M916.6666666666666 208.3333333333334L631.4999999999999 534.25" />
    <glyph glyph-name="explore"
      unicode="&#xEA30;"
      horiz-adv-x="1000" d="M588.375 411.625L293.75 293.7500000000001L411.625 588.375L706.2499999999999 706.25zM83.3333333333333 500A416.6666666666667 416.6666666666667 0 0 1 916.6666666666666 500A416.6666666666667 416.6666666666667 0 0 1 83.3333333333333 500" />
    <glyph glyph-name="extension"
      unicode="&#xEA31;"
      horiz-adv-x="1000" d="M375 833.3333333333334C375 879.3570833333333 412.3095833333333 916.6666666666666 458.3333333333333 916.6666666666666C504.3583333333333 916.6666666666666 541.6666666666666 879.3570833333333 541.6666666666666 833.3333333333334V750H750V541.6666666666667H833.3333333333333C879.3583333333333 541.6666666666667 916.6666666666666 504.3583333333333 916.6666666666666 458.3333333333334C916.6666666666666 412.3083333333334 879.3583333333333 375 833.3333333333333 375H750V166.6666666666668H541.6666666666666V250C541.6666666666666 296.0250000000001 504.3583333333333 333.3333333333334 458.3333333333333 333.3333333333334C412.3095833333333 333.3333333333334 375 296.0250000000001 375 250V166.6666666666668H166.6666666666667V375H250C296.02375 375 333.3333333333333 412.3083333333334 333.3333333333333 458.3333333333334C333.3333333333333 504.3583333333333 296.02375 541.6666666666667 250 541.6666666666667H166.6666666666667V750H375V833.3333333333334z" />
    <glyph glyph-name="eye-closed"
      unicode="&#xEA32;"
      horiz-adv-x="1000" d="M833.3333333333333 625C833.3333333333333 625 819.9875 597.1937499999999 791.6666666666666 561.9000000000001M500 416.6666666666668C433 416.6666666666668 376.9941666666667 433.8416666666667 331.1920833333334 458.3333333333334M500 416.6666666666668C567 416.6666666666668 623.0041666666666 433.8416666666667 668.8083333333333 458.3333333333334M500 416.6666666666668V270.8333333333334M166.6666666666667 625C166.6666666666667 625 181.4029166666667 594.2991666666667 212.7616666666667 556.4666666666667M331.1920833333334 458.3333333333334L208.3333333333333 333.3333333333334M331.1920833333334 458.3333333333334C278.7166666666667 486.3916666666668 239.635 524.05 212.7616666666667 556.4666666666667M668.8083333333333 458.3333333333334L770.8333333333333 333.3333333333334M668.8083333333333 458.3333333333334C724.2416666666666 487.9708333333333 764.7291666666666 528.325 791.6666666666666 561.9000000000001M212.7616666666667 556.4666666666667L83.3333333333333 500M791.6666666666666 561.9000000000001L916.6666666666666 500" />
    <glyph glyph-name="eye-crossed"
      unicode="&#xEA33;"
      horiz-adv-x="1000" d="M916.6666666666666 500C916.6666666666666 500 791.6666666666666 250 500 250C208.3333333333333 250 83.3333333333333 500 83.3333333333333 500C83.3333333333333 500 208.3333333333333 750 500 750C791.6666666666666 750 916.6666666666666 500 916.6666666666666 500zM375 500A125 125 0 0 1 625 500A125 125 0 0 1 375 500M125 125L833.3333333333333 833.3333333333334" />
    <glyph glyph-name="eye"
      unicode="&#xEA34;"
      horiz-adv-x="1000" d="M916.6666666666666 500C916.6666666666666 500 791.6666666666666 250 500 250C208.3333333333333 250 83.3333333333333 500 83.3333333333333 500C83.3333333333333 500 208.3333333333333 750 500 750C791.6666666666666 750 916.6666666666666 500 916.6666666666666 500zM375 500A125 125 0 0 1 625 500A125 125 0 0 1 375 500" />
    <glyph glyph-name="favourite"
      unicode="&#xEA35;"
      horiz-adv-x="1000" d="M500 125L439.5833333333333 178.9509541666668C225 369.8228875000001 83.3333333333333 495.7084458333334 83.3333333333333 650.2043595833334C83.3333333333333 776.0899183333333 184.1666666666667 875 312.5 875C385 875 454.5833333333333 841.8937329166667 500 789.5776566666667C545.4166666666666 841.8937329166667 615 875 687.5 875C815.8333333333333 875 916.6666666666666 776.0899183333333 916.6666666666666 650.2043595833334C916.6666666666666 495.7084458333334 775 369.8228875000001 560.4166666666666 178.5422333333334L500 125z" />
    <glyph glyph-name="file"
      unicode="&#xEA36;"
      horiz-adv-x="1000" d="M541.6666666666666 875V625H791.6666666666666M541.6666666666666 875L791.6666666666666 625V125H208.3333333333333V875z" />
    <glyph glyph-name="film"
      unicode="&#xEA37;"
      horiz-adv-x="1000" d="M666.6666666666666 579.7083333333334L875 645.4583333333333V312.25L666.7499999999999 378M666.6666666666666 708.3333333333334H125V250H666.6666666666666z" />
    <glyph glyph-name="filter"
      unicode="&#xEA38;"
      horiz-adv-x="1000" d="M416.6666666666667 489.1250000000001L167.8333333333333 834.5H834.4999999999999L583.3333333333333 486.2916666666666V291.6666666666668L416.6666666666667 166.6666666666668z" />
    <glyph glyph-name="folder"
      unicode="&#xEA39;"
      horiz-adv-x="1000" d="M125 791.6666666666667H375L416.6666666666667 708.3333333333334H875V208.3333333333334H125z" />
    <glyph glyph-name="grid-alt"
      unicode="&#xEA3A;"
      horiz-adv-x="1000" d="M291.6666666666667 875V125M708.3333333333333 875V125M875 291.6666666666668L125 291.6666666666668M875 708.3333333333334L125 708.3333333333334" />
    <glyph glyph-name="grid-small"
      unicode="&#xEA3B;"
      horiz-adv-x="1000" d="M250 750H416.6666666666667V583.3333333333334H250V750zM541.6666666666666 750H708.3333333333333V583.3333333333334H541.6666666666666V750zM250 458.3333333333334H416.6666666666667V291.6666666666668H250V458.3333333333334zM541.6666666666666 458.3333333333334H708.3333333333333V291.6666666666668H541.6666666666666V458.3333333333334z" />
    <glyph glyph-name="grid"
      unicode="&#xEA3C;"
      horiz-adv-x="1000" d="M125 875H416.6666666666667V583.3333333333334H125V875zM583.3333333333333 875H875V583.3333333333334H583.3333333333333V875zM125 416.6666666666668H416.6666666666667V125H125V416.6666666666668zM583.3333333333333 416.6666666666668H875V125H583.3333333333333V416.6666666666668z" />
    <glyph glyph-name="hamburger"
      unicode="&#xEA3D;"
      horiz-adv-x="1000" d="M250 708.3333333333334L750 708.3333333333334M250 500L750 500M250 291.6666666666668L750 291.6666666666668" />
    <glyph glyph-name="hash"
      unicode="&#xEA3E;"
      horiz-adv-x="1000" d="M458.3333333333333 875L208.3333333333333 125M791.6666666666666 875L541.6666666666666 125M125 333.3333333333334L791.6666666666666 333.3333333333334M208.3333333333333 666.6666666666667L875 666.6666666666667" />
    <glyph glyph-name="headphones"
      unicode="&#xEA3F;"
      horiz-adv-x="1000" d="M875 458.3333333333334L791.6666666666666 458.3333333333334C745.6429374999999 458.3333333333334 708.3333333333333 421.0237291666668 708.3333333333333 375L708.3333333333333 291.6666666666668C708.3333333333333 245.6429375 745.6429374999999 208.3333333333334 791.6666666666666 208.3333333333334L791.6666666666666 208.3333333333334C837.6903958333332 208.3333333333334 875 245.6429375 875 291.6666666666668L875 458.3333333333334C875 665.4401145833333 707.1067791666666 833.3333333333334 500 833.3333333333334C292.89321875 833.3333333333334 125 665.4401145833333 125 458.3333333333334L125 291.6666666666668C125 245.6429375 162.3096041666667 208.3333333333334 208.3333333333333 208.3333333333334L208.3333333333333 208.3333333333334C254.3570625 208.3333333333334 291.6666666666667 245.6429375 291.6666666666667 291.6666666666668L291.6666666666667 375C291.6666666666667 421.0237291666668 254.3570625 458.3333333333334 208.3333333333333 458.3333333333334L125 458.3333333333334" />
    <glyph glyph-name="home-alt2"
      unicode="&#xEA40;"
      horiz-adv-x="1000" d="M83.3333333333333 500L208.3333333333333 612.5M916.6666666666666 500L791.6666666666666 612.5M791.6666666666666 612.5L500 875L208.3333333333333 612.5M791.6666666666666 612.5V125H208.3333333333333V612.5" />
    <glyph glyph-name="horn"
      unicode="&#xEA41;"
      horiz-adv-x="1000" d="M270.8333333333333 625C347.2222220833334 625 423.6111125 625 500 625C583.3333333333333 625 680.5555541666666 694.4444445833333 791.6666666666666 833.3333333333334L791.6666666666666 208.3333333333334C680.5555541666666 347.2222208333334 583.3333333333333 416.6666666666668 500 416.6666666666668C423.6111125 416.6666666666668 347.2222220833334 416.6666666666668 270.8333333333333 416.6666666666668L270.8333333333333 416.6666666666668C213.3036720833334 416.6666666666668 166.6666666666667 463.3036708333334 166.6666666666667 520.8333333333334L166.6666666666667 520.8333333333334C166.6666666666667 578.3629958333333 213.3036720833334 625 270.8333333333333 625zM291.6666666666667 416.6666666666668L375 166.6666666666668L541.6666666666666 166.6666666666668L458.3333333333333 416.6666666666668zM458.3333333333333 625L458.3333333333333 416.6666666666668" />
    <glyph glyph-name="hourglass"
      unicode="&#xEA42;"
      horiz-adv-x="1000" d="M698.5294124999999 674.1216433333334L698.5294124999999 791.6666666666667C698.5294124999999 837.6903958333334 661.2198083333333 875 615.1960791666666 875L384.8039216666667 875C338.7801925 875 301.4705883333333 837.6903958333334 301.4705883333333 791.6666666666667L301.4705883333333 674.1216433333334L475.5922333333333 500L301.4705883333333 325.8783583333333L301.4705883333333 208.3333333333334C301.4705883333333 162.3096041666668 338.7801925 125 384.8039216666667 125L615.1960791666666 125C661.2198083333333 125 698.5294124999999 162.3096041666668 698.5294124999999 208.3333333333334L698.5294124999999 325.8783583333333L524.4077666666666 500L698.5294124999999 674.1216433333334z" />
    <glyph glyph-name="image"
      unicode="&#xEA43;"
      horiz-adv-x="1000" d="M125 875H875V125H125V875zM125 416.6666666666668L291.6666666666667 583.3333333333334L750 125M458.3333333333333 687.5A104.1666666666667 104.1666666666667 0 0 1 666.6666666666666 687.5A104.1666666666667 104.1666666666667 0 0 1 458.3333333333333 687.5M562.5 312.5L875 625" />
    <glyph glyph-name="inbox-alt"
      unicode="&#xEA44;"
      horiz-adv-x="1000" d="M125 458.3333333333334H375V333.3333333333334H625V458.3333333333334H875M125 458.3333333333334L208.3333333333333 833.3333333333334H791.6666666666666L875 458.3333333333334V166.6666666666668H125V458.3333333333334zM291.6666666666667 708.3333333333334H708.3333333333333M270.8333333333333 583.3333333333334H729.1666666666666" />
    <glyph glyph-name="inbox"
      unicode="&#xEA45;"
      horiz-adv-x="1000" d="M125 583.3333333333334H375V458.3333333333334H625V583.3333333333334H875M125 583.3333333333334L250 833.3333333333334H750L875 583.3333333333334V166.6666666666668H125V583.3333333333334z" />
    <glyph glyph-name="iphone"
      unicode="&#xEA46;"
      horiz-adv-x="1000" d="M750 875L750 125C750 101.9881375 731.3451958333334 83.3333333333334 708.3333333333333 83.3333333333334L291.6666666666667 83.3333333333334C268.6548020833333 83.3333333333334 250 101.9881375 250 125L250 875C250 898.0118645833334 268.6548020833333 916.6666666666666 291.6666666666667 916.6666666666666L708.3333333333333 916.6666666666666C731.3451958333334 916.6666666666666 750 898.0118645833334 750 875zM583.3333333333333 916.6666666666666L583.3333333333333 875L416.6666666666667 875L416.6666666666667 916.6666666666666z" />
    <glyph glyph-name="justify"
      unicode="&#xEA47;"
      horiz-adv-x="1000" d="M250 583.3333333333334L750 583.3333333333334M250 750L750 750M250 416.6666666666668L750 416.6666666666668M250 250L750 250" />
    <glyph glyph-name="language"
      unicode="&#xEA48;"
      horiz-adv-x="1000" d="M83.3333333333333 500A416.6666666666667 416.6666666666667 0 0 1 916.6666666666666 500A416.6666666666667 416.6666666666667 0 0 1 83.3333333333333 500M500 83.3333333333334C611.1111125 184.3434333333335 666.6666666666666 323.2323250000001 666.6666666666666 500C666.6666666666666 676.7676766666667 611.1111125 815.6565658333334 500 916.6666666666666C388.88888875 815.6565658333334 333.3333333333333 676.7676766666667 333.3333333333333 500C333.3333333333333 323.2323250000001 388.88888875 184.3434333333335 500 83.3333333333334zM104.1666666666667 625L895.8333333333333 625M104.1666666666667 375L895.8333333333333 375" />
    <glyph glyph-name="laptop"
      unicode="&#xEA49;"
      horiz-adv-x="1000" d="M833.3333333333333 708.3333333333334V250H166.6666666666667V708.3333333333334A41.6666666666667 41.6666666666667 0 0 0 208.3333333333333 750H791.6666666666666A41.6666666666667 41.6666666666667 0 0 0 833.3333333333333 708.3333333333334zM83.3333333333333 250H916.6666666666666M166.6666666666667 291.6666666666668H833.3333333333333" />
    <glyph glyph-name="layers"
      unicode="&#xEA4A;"
      horiz-adv-x="1000" d="M500 833.3333333333334L833.3333333333333 666.665L500 500L166.6666666666667 666.665L500 833.3333333333334zM833.3333333333333 500L500 333.3333333333334L166.6666666666667 500M833.3333333333333 333.3333333333334L500 166.6666666666668L166.6666666666667 333.3333333333334" />
    <glyph glyph-name="line-chart"
      unicode="&#xEA4B;"
      horiz-adv-x="1000" d="M125 333.3333333333334L333.3333333333333 541.6666666666667M333.3333333333333 583.3333333333334A41.6666666666667 41.6666666666667 0 0 1 416.6666666666667 583.3333333333334A41.6666666666667 41.6666666666667 0 0 1 333.3333333333333 583.3333333333334M541.6666666666666 375A41.6666666666667 41.6666666666667 0 0 1 625 375A41.6666666666667 41.6666666666667 0 0 1 541.6666666666666 375M416.6666666666667 541.6666666666667L541.6666666666666 416.6666666666668M625 416.6666666666668L875 666.6666666666667" />
    <glyph glyph-name="link"
      unicode="&#xEA4C;"
      horiz-adv-x="1000" d="M375 708.3333333333333C319.4444458333333 708.3333333333334 291.6666666666667 708.3333333333334 291.6666666666667 708.3333333333334C176.6073458333334 708.3333333333334 83.3333333333333 615.0593229166667 83.3333333333333 500C83.3333333333333 384.9406770833333 176.6073458333334 291.6666666666668 291.6666666666667 291.6666666666668C291.6666666666667 291.6666666666668 319.4444458333333 291.6666666666668 375 291.6666666666668M333.3333333333333 500L666.6666666666666 500M625 291.6666666666668C680.5555541666666 291.6666666666668 708.3333333333333 291.6666666666668 708.3333333333333 291.6666666666668C823.3926541666667 291.6666666666668 916.6666666666666 384.9406791666667 916.6666666666666 500C916.6666666666666 615.0593208333333 823.3926541666667 708.3333333333334 708.3333333333333 708.3333333333334C708.3333333333333 708.3333333333334 680.5555541666666 708.3333333333334 625 708.3333333333333" />
    <glyph glyph-name="location"
      unicode="&#xEA4D;"
      horiz-adv-x="1000" d="M500 125C666.6666666666666 300 750 466.6666666666666 750 625C750 763.0711875 638.0711875 875 500 875C361.9288125 875 250 763.0711875 250 625C250 466.6666666666666 333.3333333333333 300 500 125zM458.3333333333333 625A41.6666666666667 41.6666666666667 0 0 1 541.6666666666666 625A41.6666666666667 41.6666666666667 0 0 1 458.3333333333333 625" />
    <glyph glyph-name="lock-alt-open"
      unicode="&#xEA4E;"
      horiz-adv-x="1000" d="M291.6666666666667 682.2916666666667L291.6666666666667 708.3333333333334C291.6666666666667 823.39265625 384.9406770833333 916.6666666666666 500 916.6666666666666L500 916.6666666666666C615.0593208333333 916.6666666666666 708.3333333333333 823.39265625 708.3333333333333 708.3333333333334L708.3333333333333 541.6666666666667M208.3333333333333 541.6666666666667H791.6666666666666V125H208.3333333333333V541.6666666666667zM458.3333333333333 333.3333333333334A41.6666666666667 41.6666666666667 0 0 1 541.6666666666666 333.3333333333334A41.6666666666667 41.6666666666667 0 0 1 458.3333333333333 333.3333333333334" />
    <glyph glyph-name="lock-alt"
      unicode="&#xEA4F;"
      horiz-adv-x="1000" d="M208.3333333333333 541.6666666666667H791.6666666666666V125H208.3333333333333V541.6666666666667zM500 875L500 875C615.0593208333333 875 708.3333333333333 781.7259895833333 708.3333333333333 666.6666666666667L708.3333333333333 541.6666666666667L291.6666666666667 541.6666666666667L291.6666666666667 666.6666666666667C291.6666666666667 781.7259895833333 384.9406770833333 875 500 875zM458.3333333333333 333.3333333333334A41.6666666666667 41.6666666666667 0 0 1 541.6666666666666 333.3333333333334A41.6666666666667 41.6666666666667 0 0 1 458.3333333333333 333.3333333333334" />
    <glyph glyph-name="minus"
      unicode="&#xEA50;"
      horiz-adv-x="1000" d="M833.3333333333333 500L166.6666666666667 500" />
    <glyph glyph-name="mute"
      unicode="&#xEA51;"
      horiz-adv-x="1000" d="M750 583.3333333333334L916.6666666666666 416.6666666666668M750 416.6666666666668L916.6666666666666 583.3333333333334M541.6666666666666 791.6666666666667V208.3333333333334L333.3333333333333 375H125V625H333.3333333333333zM541.6666666666666 416.6666666666668C604.1666666666666 458.3333333333334 604.1666666666666 541.6666666666667 541.6666666666666 583.3333333333334" />
    <glyph glyph-name="new"
      unicode="&#xEA52;"
      horiz-adv-x="1000" d="M791.6666666666666 416.6666666666668V83.3333333333334H124.99875V833.3333333333334H541.6666666666666M727.5333333333333 831.6995833333333C760.075 864.2429166666667 812.8416666666666 864.2433333333333 845.3833333333333 831.6995833333333L873.3666666666666 803.7170833333333C905.9083333333334 771.1733333333334 905.9083333333334 718.4095833333333 873.3666666666666 685.86625L482.7416666666667 295.2416666666667C467.1125 279.6125 445.9166666666667 270.8333333333334 423.8166666666666 270.8333333333334L312.5 270.8333333333334L312.5 382.15C312.5 404.25 321.2795833333333 425.4458333333334 336.9079166666666 441.0750000000001L727.5333333333333 831.6995833333333zM677.0833333333333 781.25L822.9166666666666 635.4166666666667" />
    <glyph glyph-name="no-entry"
      unicode="&#xEA53;"
      horiz-adv-x="1000" d="M666.6666666666666 875L875 666.6666666666667L875 333.3333333333334L666.6666666666666 125L333.3333333333333 125L125 333.3333333333334L125 666.6666666666667L333.3333333333333 875zM291.6666666666667 583.3333333333334H708.3333333333333V416.6666666666668H291.6666666666667V583.3333333333334z" />
    <glyph glyph-name="origin"
      unicode="&#xEA54;"
      horiz-adv-x="1000" d="M500 208.3333333333334C661.0833333333333 208.3333333333334 791.6666666666666 338.9166666666668 791.6666666666666 500C791.6666666666666 661.0829166666667 661.0833333333333 791.6666666666667 500 791.6666666666667C338.9170833333333 791.6666666666667 208.3333333333333 661.0829166666667 208.3333333333333 500C208.3333333333333 338.9166666666668 338.9170833333333 208.3333333333334 500 208.3333333333334zM500 916.6666666666666V666.6666666666667M500 333.3333333333334V83.3333333333334M83.3333333333333 500L333.3333333333333 500M666.6666666666666 500L916.6666666666666 500M458.3333333333333 500A41.6666666666667 41.6666666666667 0 0 1 541.6666666666666 500A41.6666666666667 41.6666666666667 0 0 1 458.3333333333333 500" />
    <glyph glyph-name="pan"
      unicode="&#xEA55;"
      horiz-adv-x="1000" d="M833.3333333333333 416.6666666666668L833.3333333333333 291.6666666666668C833.3333333333333 199.6192083333334 758.714125 125 666.6666666666666 125L417.5691416666667 125C364.6022904166666 125 314.7889133333333 150.1764208333334 283.3763033333334 192.8230541666667L139.3923616666667 388.2996625000001C117.2951733333333 418.2994208333334 122.8241591666667 460.3938333333334 151.9189495833333 483.6696666666667C181.5650170833333 507.3865208333333 224.30658875 505.0050333333334 251.1344045833333 478.1415500000001L333.3333333333333 395.8333333333334L333.3333333333333 458.3333333333334L333.4971170833333 458.3333333333334L333.3333333333333 541.6666666666667L334.0605125 729.1666666666667C334.0605125 763.6844633333333 362.0427154166667 791.6666666666667 396.5605125 791.6666666666667C431.0783083333333 791.6666666666667 459.0605125 763.6844633333333 459.0605125 729.1666666666667L459.0605125 541.6666666666667L459.0605125 812.5C459.0605125 847.0177966666666 487.0427166666666 875 521.5605125 875C556.0783083333333 875 584.0605125 847.0177966666666 584.0605125 812.5L584.0605125 541.6666666666667L584.0605125 770.8333333333334C584.0605125 805.35113 612.0427166666666 833.3333333333334 646.5605125 833.3333333333334C681.0783083333333 833.3333333333334 709.0605125 805.35113 709.0605125 770.8333333333334L709.0605125 541.6666666666667L709.0605125 687.5C709.0605125 722.0177966666668 737.0427166666666 750 771.5605124999998 750C806.0783083333333 750 834.0605124999998 722.0177966666668 834.0605124999998 687.5L833.5790083333333 416.6666666666668L833.3333333333333 416.6666666666668z" />
    <glyph glyph-name="paperclip"
      unicode="&#xEA56;"
      horiz-adv-x="1000" d="M330.6322245833333 425.8500458333334L631.738775 726.9565945833333C668.3004166666667 763.48698875 727.7365249999999 763.48698875 764.2981666666666 726.9565945833333C800.8598125 690.3949516666667 800.8598125 630.9275954166667 764.2981666666666 594.3659525L350.03802 185.5119291666667C289.0082004166667 124.4821083333335 190.1355175 124.4821083333335 129.1056979166667 185.5119291666667C68.0758783333333 246.5105000000001 68.0758783333333 345.4456791666668 129.1056979166667 406.44425L538.8972 810.9233766666666C624.3326999999999 896.3588745833333 762.8919500000001 896.3588745833333 848.20245 810.9233766666666C933.7004458333334 725.45663 933.7004458333334 587.0223745833333 848.26495 501.5868750000001L551.6270458333333 204.9177250000001" />
    <glyph glyph-name="people"
      unicode="&#xEA57;"
      horiz-adv-x="1000" d="M41.6666666666667 250C41.6666666666667 343.75 166.6666666666667 343.75 229.1666666666667 406.25C260.4166666666667 437.5 166.6666666666667 437.5 166.6666666666667 593.75C166.6666666666667 697.90625 208.3229166666666 750 291.6666666666667 750C375.0104166666667 750 416.6666666666667 697.90625 416.6666666666667 593.75C416.6666666666667 437.5 322.9166666666667 437.5 354.1666666666667 406.25C416.6666666666667 343.75 541.6666666666666 343.75 541.6666666666666 250M532.9921416666666 344.7221500000001C553.5022958333333 352.1555833333334 570.311925 359.0291916666668 583.4210208333333 365.3429791666668C606.3656666666666 376.3939041666668 628.5023916666667 388.9190583333334 645.8333333333333 406.25C677.0833333333333 437.5 583.3333333333333 437.5 583.3333333333333 593.75C583.3333333333333 697.90625 624.9895833333334 750 708.3333333333333 750C791.6770833333334 750 833.3333333333333 697.90625 833.3333333333333 593.75C833.3333333333333 437.5 739.5833333333333 437.5 770.8333333333333 406.25C833.3333333333333 343.75 958.3333333333331 343.75 958.3333333333331 250M500 333.3333333333334C515.2614208333333 338.4855333333334 526.2588 342.2818083333334 532.9921416666666 344.7221500000001" />
    <glyph glyph-name="plane"
      unicode="&#xEA58;"
      horiz-adv-x="1000" d="M766.4041666666666 818.175L583.3333333333333 708.3333333333334L250 791.6666666666667L208.3333333333333 750L437.5 562.5L333.3333333333333 416.6666666666668H208.3333333333333L166.6666666666667 375L270.8333333333333 312.5L312.5 270.8333333333334L375 166.6666666666668L416.6666666666667 208.3333333333334V333.3333333333334L562.5 437.5L750 208.3333333333334L791.6666666666666 250L708.3333333333333 583.3333333333334L818.175 766.4025C827.0833333333334 781.2504166666666 824.7458333333333 800.25625 812.5 812.5C800.2541666666666 824.74375 781.25 827.08375 766.4041666666666 818.175z" />
    <glyph glyph-name="plus"
      unicode="&#xEA59;"
      horiz-adv-x="1000" d="M833.3333333333333 500L166.6666666666667 500M500 833.3333333333334L500 166.6666666666668" />
    <glyph glyph-name="poll"
      unicode="&#xEA5A;"
      horiz-adv-x="1000" d="M166.6666666666667 833.3333333333334V166.6666666666668M166.6666666666667 750H625V583.3333333333334H166.6666666666667M166.6666666666667 583.3333333333334H791.6666666666666V416.6666666666668H166.6666666666667M166.6666666666667 416.6666666666668H500V250H166.6666666666667" />
    <glyph glyph-name="qr"
      unicode="&#xEA5B;"
      horiz-adv-x="1000" d="M416.6666666666667 875L416.6666666666667 583.3333333333334L125 583.3333333333334L125 875L416.6666666666667 875zM291.6666666666667 750H250V708.3333333333334H291.6666666666667V750zM416.6666666666667 416.6666666666668L416.6666666666667 125L125 125L125 416.6666666666668L416.6666666666667 416.6666666666668zM250 291.6666666666668H291.6666666666667V250H250V291.6666666666668zM583.3333333333333 166.6666666666668H625V125H583.3333333333333V166.6666666666668zM708.3333333333333 291.6666666666668H750V250H708.3333333333333V291.6666666666668zM583.3333333333333 416.6666666666668H625V375H583.3333333333333V416.6666666666668zM833.3333333333333 291.6666666666668H875V250H833.3333333333333V291.6666666666668zM833.3333333333333 416.6666666666668H875V375H833.3333333333333V416.6666666666668zM833.3333333333333 166.6666666666668H875V125H833.3333333333333V166.6666666666668zM875 875L875 583.3333333333334L583.3333333333333 583.3333333333334L583.3333333333333 875L875 875zM708.3333333333333 750H750V708.3333333333334H708.3333333333333V750z" />
    <glyph glyph-name="radio"
      unicode="&#xEA5C;"
      horiz-adv-x="1000" d="M227.07201875 750C90.97599375 613.9039750000001 90.97599375 386.0960250000001 227.07201875 250M358.2993204166667 666.6666666666667C269.4557820833333 577.8231291666667 269.4557820833333 422.1768708333334 358.2993204166667 333.3333333333334M772.9279833333333 250C909.0240041666666 386.0960250000001 909.0240041666666 613.9039750000001 772.9279833333333 750M641.7006791666666 333.3333333333334C730.5442166666666 422.1768708333334 730.5442166666666 577.8231291666667 641.7006791666666 666.6666666666667M458.3333333333333 500A41.6666666666667 41.6666666666667 0 0 1 541.6666666666666 500A41.6666666666667 41.6666666666667 0 0 1 458.3333333333333 500" />
    <glyph glyph-name="repeat"
      unicode="&#xEA5D;"
      horiz-adv-x="1000" d="M83.3333333333333 456.6708333333333V541.6666666666667C83.3333333333333 679.7379166666667 195.2620833333333 791.6666666666667 333.3333333333333 791.6666666666667H875V791.6666666666667M791.6666666666666 916.6666666666666L916.6666666666666 791.6666666666667L791.6666666666666 666.6666666666667M916.6666666666666 584.165V499.1666666666667C916.6666666666666 361.0958333333333 804.7375 249.1666666666668 666.6666666666666 249.1666666666668H125V249.1666666666668M208.3333333333333 125L83.3333333333333 250L208.3333333333333 375" />
    <glyph glyph-name="retweet"
      unicode="&#xEA5E;"
      horiz-adv-x="1000" d="M541.6666666666666 250L250 250L250 708.3333333333334M125 625L250 750L375 625M458.3333333333333 750L750 750L750 291.6666666666668M875 375L750 250L625 375" />
    <glyph glyph-name="save"
      unicode="&#xEA5F;"
      horiz-adv-x="1000" d="M720.5372166666667 862.7961158333334L875 708.3333333333334L875 166.6666666666668C875 143.6548041666666 856.3451958333334 125 833.3333333333333 125L166.6666666666667 125C143.6548020833333 125 125 143.6548041666666 125 166.6666666666668L125 833.3333333333334C125 856.3451979166666 143.6548020833333 875 166.6666666666667 875L691.0744333333333 875C702.1251208333333 875 712.7231999999999 870.6101316666667 720.5372166666667 862.7961158333334zM291.6666666666667 458.3333333333334H708.3333333333333V125H291.6666666666667V458.3333333333334zM333.3333333333333 875H666.6666666666666V666.6666666666667H333.3333333333333V875z" />
    <glyph glyph-name="search"
      unicode="&#xEA60;"
      horiz-adv-x="1000" d="M600.5046749999999 399.4953250000001L833.3333333333333 166.6666666666668M166.6666666666667 583.3333333333334A250 250 0 0 1 666.6666666666666 583.3333333333334A250 250 0 0 1 166.6666666666667 583.3333333333334" />
    <glyph glyph-name="settings"
      unicode="&#xEA61;"
      horiz-adv-x="1000" d="M209.7943454166667 470.6235875C208.8281183333333 480.2846000000001 208.3333333333333 490.0845166666667 208.3333333333333 500C208.3333333333333 509.9154833333333 208.8281183333333 519.7154 209.7943454166667 529.3764125L133.5738070833333 615.33121625L216.9071404166667 759.66878375L329.4571375 736.6371233333334C345.30380125 748.0777416666667 362.3455408333334 757.965745 380.35938875 766.0781658333333L416.6666666666667 875L583.3333333333333 875L619.6406125 766.0781658333333C637.6544583333333 757.965745 654.6962 748.0777416666667 670.5428625000001 736.6371233333334L783.0928583333333 759.66878375L866.4261916666667 615.33121625L790.2056541666667 529.3764125C791.1718833333332 519.7154 791.6666666666666 509.9154833333333 791.6666666666666 500C791.6666666666666 490.0845166666667 791.1718833333332 480.2846000000001 790.2056541666667 470.6235875L866.4261916666667 384.6687833333334L783.0928583333333 240.3312166666667L670.5428625000001 263.3628750000001C654.6962 251.9222583333334 637.6544583333333 242.0342541666668 619.6406125 233.9218333333335L583.3333333333333 125L416.6666666666667 125L380.35938875 233.9218333333335C362.3455408333334 242.0342541666668 345.30380125 251.9222583333334 329.4571375 263.3628750000001L216.9071404166667 240.3312166666667L133.5738070833333 384.6687833333334L209.7943454166667 470.6235875zM458.3333333333333 500A41.6666666666667 41.6666666666667 0 0 1 541.6666666666666 500A41.6666666666667 41.6666666666667 0 0 1 458.3333333333333 500" />
    <glyph glyph-name="share-android"
      unicode="&#xEA62;"
      horiz-adv-x="1000" d="M666.6666666666666 666.6666666666667L333.3333333333333 541.6666666666667L666.6666666666666 666.6666666666667zM666.6666666666666 333.3333333333334L333.3333333333333 458.3333333333334L666.6666666666666 333.3333333333334zM166.6666666666667 500A83.3333333333333 83.3333333333333 0 0 1 333.3333333333333 500A83.3333333333333 83.3333333333333 0 0 1 166.6666666666667 500M666.6666666666666 708.3333333333334A83.3333333333333 83.3333333333333 0 0 1 833.3333333333333 708.3333333333334A83.3333333333333 83.3333333333333 0 0 1 666.6666666666666 708.3333333333334M666.6666666666666 291.6666666666668A83.3333333333333 83.3333333333333 0 0 1 833.3333333333333 291.6666666666668A83.3333333333333 83.3333333333333 0 0 1 666.6666666666666 291.6666666666668" />
    <glyph glyph-name="share"
      unicode="&#xEA63;"
      horiz-adv-x="1000" d="M500 416.6666666666668V750M375 666.6666666666667L500 791.6666666666667L625 666.6666666666667M208.3333333333333 458.3333333333334V250H791.6666666666666V458.3333333333334" />
    <glyph glyph-name="shift"
      unicode="&#xEA64;"
      horiz-adv-x="1000" d="M208.3333333333333 125L791.6666666666666 125L208.3333333333333 125zM666.6666666666666 500L666.6666666666666 291.6666666666668L333.3333333333333 291.6666666666668L333.3333333333333 500L125 500L500 875L875 500L666.6666666666666 500z" />
    <glyph glyph-name="shuffle"
      unicode="&#xEA65;"
      horiz-adv-x="1000" d="M875 331.6708333333334H740.4458333333333C659.0166666666667 331.6708333333334 582.6875 376.2625000000001 535.8791666666666 451.1833333333334L449.8875 588.8204166666667C403.0766666666667 663.7408333333333 326.7483333333334 708.3333333333334 245.3175 708.3333333333334L125 708.3333333333334M875 708.3333333333334H740.4458333333333C659.0166666666667 708.3333333333334 582.6875 659.005 535.8791666666666 576.1291666666666L449.8875 423.8708333333334C403.0766666666667 340.9958333333334 326.7483333333334 291.6666666666668 245.3175 291.6666666666668L125 291.6666666666668M791.6666666666666 833.3333333333334L916.6666666666666 708.3333333333334L791.6666666666666 583.3333333333334M791.6666666666666 458.3333333333334L916.6666666666666 333.3333333333334L791.6666666666666 208.3333333333334" />
    <glyph glyph-name="signal"
      unicode="&#xEA66;"
      horiz-adv-x="1000" d="M750 791.6666666666667C473.857625 791.6666666666667 250 567.8090416666666 250 291.6666666666668M750 625C565.9050833333333 625 416.6666666666667 475.7615833333334 416.6666666666667 291.6666666666668M750 458.3333333333334C657.9525416666667 458.3333333333334 583.3333333333333 383.7141250000001 583.3333333333333 291.6666666666668" />
    <glyph glyph-name="sort-down"
      unicode="&#xEA67;"
      horiz-adv-x="1000" d="M458.3333333333333 625H708.3333333333333M458.3333333333333 791.6666666666667H791.6666666666666M458.3333333333333 458.3333333333334H625M416.6666666666667 291.6666666666668L291.6666666666667 166.6666666666668L166.6666666666667 291.6666666666668M291.6666666666667 791.6666666666667V208.3333333333334" />
    <glyph glyph-name="sort-up"
      unicode="&#xEA68;"
      horiz-adv-x="1000" d="M458.3333333333333 333.3333333333334H708.3333333333333M458.3333333333333 166.6666666666668H791.6666666666666M458.3333333333333 500H625M166.6666666666667 666.6666666666667L291.6666666666667 791.6666666666667L416.6666666666667 666.6666666666667M291.6666666666667 166.6666666666668L291.6666666666667 750" />
    <glyph glyph-name="sounds"
      unicode="&#xEA69;"
      horiz-adv-x="1000" d="M500 708.3333333333334L500 291.6666666666668M625 583.3333333333334L625 416.6666666666668M750 666.6666666666667L750 333.3333333333334M875 458.3333333333334L875 541.6666666666667M375 833.3333333333334L375 166.6666666666668M250 625L250 375M125 458.3333333333334L125 541.6666666666667" />
    <glyph glyph-name="stack"
      unicode="&#xEA6A;"
      horiz-adv-x="1000" d="M416.6666666666667 708.3333333333334L583.3333333333333 708.3333333333334M250 500L750 500M125 291.6666666666668L875 291.6666666666668" />
    <glyph glyph-name="star"
      unicode="&#xEA6B;"
      horiz-adv-x="1000" d="M500 256.5L257.625 129.0833333333334L303.9166666666667 398.9583333333334L107.8333333333333 590.0833333333334L378.8333333333333 629.4583333333333L500 875L621.1666666666666 629.4583333333333L892.1666666666666 590.0833333333334L696.0833333333333 398.9583333333334L742.375 129.0833333333334z" />
    <glyph glyph-name="stats-alt"
      unicode="&#xEA6C;"
      horiz-adv-x="1000" d="M583.3333333333333 750L333.3333333333333 750M875 583.3333333333334L333.3333333333333 583.3333333333334M166.6666666666667 250L166.6666666666667 750M750 416.6666666666668L333.3333333333333 416.6666666666668M416.6666666666667 250L333.3333333333333 250" />
    <glyph glyph-name="stats"
      unicode="&#xEA6D;"
      horiz-adv-x="1000" d="M250 708.3333333333334L625 708.3333333333334M250 500L750 500M250 291.6666666666668L500 291.6666666666668" />
    <glyph glyph-name="swap-horizontal"
      unicode="&#xEA6E;"
      horiz-adv-x="1000" d="M666.6666666666666 833.3333333333334L791.6666666666666 708.3333333333334L666.6666666666666 583.3333333333334M166.6666666666667 708.3333333333334L750 708.3333333333334M291.6666666666667 166.6666666666668L166.6666666666667 291.6666666666668L291.6666666666667 416.6666666666668M791.6666666666666 291.6666666666668L208.3333333333333 291.6666666666668" />
    <glyph glyph-name="swap-vertical"
      unicode="&#xEA6F;"
      horiz-adv-x="1000" d="M166.6666666666667 666.6666666666667L291.6666666666667 791.6666666666667L416.6666666666667 666.6666666666667M291.6666666666667 166.6666666666668L291.6666666666667 750M833.3333333333333 291.6666666666668L708.3333333333333 166.6666666666668L583.3333333333333 291.6666666666668M708.3333333333333 791.6666666666667L708.3333333333333 208.3333333333334" />
    <glyph glyph-name="thumb-up"
      unicode="&#xEA70;"
      horiz-adv-x="1000" d="M333.3333333333333 635.8396604166667C333.3333333333333 655.7322662500001 340.4493466666666 674.9686825 353.3952833333334 690.0722745833334L553.0163791666666 922.9635545833333C570.8338625 943.7506158333334 600.5122166666666 949.7438925 625 937.5C648.9081541666666 925.5459229166667 660.3880833333333 897.83092 651.935275 872.4724929166666L583.3333333333333 666.6666666666667L775.1489416666667 666.6666666666667C780.1482416666665 666.6666666666667 785.1374 666.2167945833334 790.0560583333332 665.3224925C835.3374208333333 657.0895175 865.3710749999999 613.7075758333333 857.1380999999999 568.4262125L804.1077958333333 276.7595458333334C796.9033916666667 237.1353208333335 762.3924833333333 208.3333333333334 722.1186374999999 208.3333333333334L416.6666666666667 208.3333333333334C370.6429375 208.3333333333334 333.3333333333333 245.6429375 333.3333333333333 291.6666666666668L333.3333333333333 635.8396604166667zM166.6666666666667 250L166.6666666666667 625" />
    <glyph glyph-name="trending-down"
      unicode="&#xEA71;"
      horiz-adv-x="1000" d="M125 708.3333333333334L375 458.3333333333334L541.6666666666666 625L850.2083333333334 316.4583333333334M850.2083333333334 316.4583333333334L875 291.6666666666668M875 416.6666666666668V291.6666666666668H750" />
    <glyph glyph-name="typography"
      unicode="&#xEA72;"
      horiz-adv-x="1000" d="M166.6666666666667 666.6666666666667L208.3333333333333 833.3333333333334H500M833.3333333333333 666.6666666666667L791.6666666666666 833.3333333333334H500M500 833.3333333333334V166.6666666666668M500 166.6666666666668H333.3333333333333M500 166.6666666666668H666.6666666666666" />
    <glyph glyph-name="user"
      unicode="&#xEA73;"
      horiz-adv-x="1000" d="M229.1666666666667 187.5C326.38888875 229.1666666666668 388.88888875 263.8888875 416.6666666666667 291.6666666666668C458.3333333333333 333.3333333333334 333.3333333333333 333.3333333333334 333.3333333333333 541.6666666666667C333.3333333333333 680.5555554166667 388.88888875 750 500 750C611.1111125 750 666.6666666666666 680.5555554166667 666.6666666666666 541.6666666666667C666.6666666666666 333.3333333333334 541.6666666666666 333.3333333333334 583.3333333333333 291.6666666666668C611.1111125 263.8888875 673.6111125 229.1666666666668 770.8333333333333 187.5M83.3333333333333 500A416.6666666666667 416.6666666666667 0 0 1 916.6666666666666 500A416.6666666666667 416.6666666666667 0 0 1 83.3333333333333 500" />
    <glyph glyph-name="vertical"
      unicode="&#xEA74;"
      horiz-adv-x="1000" d="M708.3333333333333 250L708.3333333333333 750M500 250L500 750M291.6666666666667 250L291.6666666666667 750" />
    <glyph glyph-name="volume-loud"
      unicode="&#xEA75;"
      horiz-adv-x="1000" d="M541.6666666666666 791.6666666666667V208.3333333333334L333.3333333333333 375H125V625H333.3333333333333zM541.6666666666666 416.6666666666668C604.1666666666666 458.3333333333334 604.1666666666666 541.6666666666667 541.6666666666666 583.3333333333334M666.6666666666666 333.3333333333334C753.5760541666666 420.2427208333334 753.5760541666666 579.7572791666666 666.6666666666666 666.6666666666667M750 208.3333333333334C916.0633333333332 374.3966666666667 916.9866791666666 624.6799862500001 750 791.6666666666667" />
    <glyph glyph-name="wallpaper"
      unicode="&#xEA76;"
      horiz-adv-x="1000" d="M375 708.3333333333334A125 125 0 0 1 625 708.3333333333334A125 125 0 0 1 375 708.3333333333334M375 291.6666666666668A125 125 0 0 1 625 291.6666666666668A125 125 0 0 1 375 291.6666666666668M617.9208333333333 712.4177588063882A125 125 0 0 1 742.9208333333333 495.9114078602785A125 125 0 0 1 617.9208333333333 712.4177588063882M257.0779166666666 504.0823421397216A125 125 0 0 1 382.0779166666666 287.5759911936121A125 125 0 0 1 257.0779166666666 504.0823421397216M257.0770833333334 495.9155745269452A125 125 0 0 1 382.0770833333334 712.4219254730549A125 125 0 0 1 257.0770833333334 495.9155745269452M617.9208333333333 287.5843245269453A125 125 0 0 1 742.9208333333333 504.0906754730548A125 125 0 0 1 617.9208333333333 287.5843245269453" />
    <glyph glyph-name="wheelchair"
      unicode="&#xEA77;"
      horiz-adv-x="1000" d="M625 291.6666666666668C625 176.6083333333335 531.725 83.3333333333334 416.6666666666667 83.3333333333334C301.6075 83.3333333333334 208.3333333333333 176.6083333333335 208.3333333333333 291.6666666666668C208.3333333333333 377.0958333333334 259.7541666666667 450.5166666666667 333.3333333333333 482.6666666666666M416.6666666666667 875A41.6666666666667 41.6666666666667 0 0 1 500 875A41.6666666666667 41.6666666666667 0 0 1 416.6666666666667 875M791.6666666666666 104.1666666666667L724.8291666666667 354.8041666666667C715.1 391.2833333333334 682.0624999999999 416.6666666666668 644.3083333333333 416.6666666666668H458.3333333333333V708.3333333333334L708.3333333333333 583.3333333333334" />
    <glyph glyph-name="wifi"
      unicode="&#xEA78;"
      horiz-adv-x="1000" d="M884.4967541666666 540.1860875C676.5722708333333 748.11057 339.46007625 748.11057 131.53559375 540.1860875M733.9045208333333 389.5938541666667C609.1498291666667 514.3485458333333 406.882515 514.3485458333333 282.1278254166667 389.5938541666667M583.3122875 239.0016250000001C541.7273916666666 280.5865208333334 474.3049541666667 280.5865208333334 432.7200583333334 239.0016250000001" />
    <glyph glyph-name="zoom-in"
      unicode="&#xEA79;"
      horiz-adv-x="1000" d="M166.6666666666667 166.6666666666668L399.4953241666667 399.4953250000001M583.3333333333333 333.3333333333334C445.2621458333333 333.3333333333334 333.3333333333333 445.2621458333333 333.3333333333333 583.3333333333334C333.3333333333333 721.4045208333333 445.2621458333333 833.3333333333334 583.3333333333333 833.3333333333334C721.4045208333333 833.3333333333334 833.3333333333333 721.4045208333333 833.3333333333333 583.3333333333334C833.3333333333333 445.2621458333333 721.4045208333333 333.3333333333334 583.3333333333333 333.3333333333334zM694.4444458333334 583.3333333333334L472.2222208333333 583.3333333333334M583.3333333333333 694.4444445833333L583.3333333333333 472.2222208333334" />
    <glyph glyph-name="zoom-out"
      unicode="&#xEA7A;"
      horiz-adv-x="1000" d="M583.3333333333333 333.3333333333334C445.2621458333333 333.3333333333334 333.3333333333333 445.2621458333333 333.3333333333333 583.3333333333334C333.3333333333333 721.4045208333333 445.2621458333333 833.3333333333334 583.3333333333333 833.3333333333334C721.4045208333333 833.3333333333334 833.3333333333333 721.4045208333333 833.3333333333333 583.3333333333334C833.3333333333333 445.2621458333333 721.4045208333333 333.3333333333334 583.3333333333333 333.3333333333334zM694.4444458333334 583.3333333333334L472.2222208333333 583.3333333333334M166.6666666666667 166.6666666666668L399.4953241666667 399.4953250000001" />
  </font>
</defs>
</svg>
